ply
format ascii 1.0
comment VCGLIB generated
element vertex 180
property float x
property float y
property float z
property float nx
property float ny
property float nz
property float texture_u
property float texture_v
element face 318
property list uchar int vertex_indices
end_header
-48.65104 24.35081 -53.56174 0.07115774 0.9441635 0.3217014 0.274785 0.007940
1.037445 24.3265 -3.480422 0.3088435 0.8611825 0.4037084 0.499927 0.023819
-47.40411 45.21309 -3.480463 0.607823 -0.1301731 0.7833303 0.499927 0.023819
-5.26067 45.21127 -9.676105 0.04449105 -0.7652212 -0.6422281 0.491267 0.579603
1.322367 24.33031 -4.872648 -0.7052358 0.5408216 -0.458426 0.491267 0.579603
-47.40412 45.21308 -9.313153 0.2428615 -0.3146986 0.9175963 0.421993 0.023819
-47.40411 24.33031 -6.456339 0.2058369 0.6024846 -0.7711313 0.421993 0.023819
-7.974257 24.39871 -16.47648 0.5544989 0.626507 0.5477408 0.285610 0.236870
37.51917 49.38964 76.57018 0.4460932 -0.004899343 0.894973 0.997835 0.992471
2.284618 24.33031 -53.39742 0.1976591 0.7831611 0.5895672 0.188193 0.567694
-46.28945 25.72175 -54.99172 0.655697 0.6925455 -0.3007359 0.179533 0.393019
35.08286 25.72249 -54.99133 -0.4095 0.4169203 -0.8114722 0.179533 0.964682
35.08286 47.99746 -54.99133 -0.8183594 -0.4069358 -0.4058216 0.179533 0.964682
37.33036 48.4358 -52.88877 0.3643893 -0.7784328 0.5111387 0.274785 0.964682
1.799262 45.32418 -38.10142 -0.04675151 -0.9854604 -0.1633462 0.274785 0.035729
2.714552 45.21309 -3.480463 0.5298759 -0.8059158 0.2640669 0.499927 0.595483
36.127 47.99734 75.17799 -0.8163005 -0.3973813 -0.4192153 0.989176 0.976592
36.127 24.33031 75.17799 -0.3327518 0.6655322 -0.6680892 0.989176 0.976592
-5.638558 47.99734 75.17799 0.5774618 -0.577215 -0.577374 0.989176 0.500206
-5.638558 24.33031 75.17799 0.5773972 0.5773972 -0.5772563 0.989176 0.500206
-5.625358 24.33087 18.79451 0.5762895 0.5767233 0.5790341 0.638475 0.500206
-47.40411 45.21309 17.40231 0.4134249 -0.8111081 -0.4137433 0.629816 0.492266
-5.638558 47.99734 18.79451 0.5748864 -0.578425 0.5787315 0.638475 0.500206
37.18791 48.01007 19.09282 0.7254353 -0.4953339 0.4778997 0.638475 0.976592
37.51917 24.33031 76.56888 0.8979093 -0.01188864 0.44002 0.908356 0.992471
-47.40412 47.99734 18.79449 0.3915263 -0.4404312 0.8079155 0.638475 0.023819
-7.034047 24.33089 18.79449 -0.5481949 0.5706648 0.6114116 0.638475 0.404928
-7.030744 47.99734 18.79451 -0.4105936 -0.8146039 0.4096748 0.638475 0.484326
-46.59006 24.47566 17.39482 0.5105116 0.6798967 -0.5264204 0.629816 0.404928
-7.030751 24.33031 75.17799 -0.5866933 0.5727264 -0.5725167 0.989176 0.484326
-7.030751 47.99734 75.17799 -0.6789312 -0.3257009 -0.6580056 0.989176 0.484326
-48.3983 48.32775 76.43684 0.4189899 -0.9079311 0.01041903 0.989176 0.023819
36.127 24.33647 17.36359 -0.6712845 0.6570261 -0.3430654 0.629816 0.976592
36.127 45.21309 17.40231 -0.267827 -0.8011155 -0.5352409 0.629816 0.976592
-46.35215 47.98416 -75.9455 0.9076821 -0.4179535 0.03779188 0.050580 0.069672
35.06215 47.9748 -75.9622 -0.4477537 -0.8941548 0.001946275 0.050580 0.930740
37.12634 24.33868 -39.04207 0.2745806 0.9592971 0.0659907 0.458795 0.976592
36.127 45.19153 -37.46279 -0.8049331 -0.4471364 0.3900662 0.458795 0.976592
-47.95485 48.03345 -54.43498 0.3239367 -0.9453633 -0.03678784 0.006348 0.041905
36.56005 24.33031 18.89351 -0.001944727 0.706682 0.7075286 0.753932 0.992471
-47.97114 24.33031 76.1767 0.03816575 0.9980501 0.04938981 0.908356 0.007940
37.09262 24.33055 -53.95141 0.01149084 0.6915031 0.7222821 0.006348 0.958506
35.01316 25.78128 -81.92565 -0.7067758 0.7074323 0.002732772 0.049644 0.958510
-46.10796 25.77456 -81.69025 0.7037871 0.7103841 0.006189535 0.006348 0.041905
-48.71903 30.16149 18.26021 0.3395333 0.8159355 0.4679385 0.753932 0.015880
-48.7194 49.38988 -53.92241 -0.9535347 0.2868327 0.09218816 0.274785 0.007940
1.037444 49.38587 -3.480422 0.3834924 0.7728 0.5056814 0.499927 0.023819
-47.40411 70.27242 -3.480463 0.607823 -0.1301727 0.7833302 0.499927 0.023819
1.322367 70.27242 -5.121748 -0.4889378 -0.8345557 -0.2538832 0.491267 0.579603
1.322367 49.38968 -4.872648 -0.115281 0.9806465 -0.1582491 0.491267 0.579603
2.438957 49.39595 -39.14891 0.5990667 0.7885895 -0.1387292 0.283445 0.559754
2.08704 72.6572 -39.67728 0.4216079 -0.6791412 -0.6008444 0.274785 0.595483
-7.726319 66.46509 -16.18293 0.5143127 0.0447958 0.856432 0.421993 0.476386
-47.40411 70.27242 -9.313153 0.2308891 -0.9166684 0.3262046 0.421993 0.023819
-47.40411 49.38967 -6.45634 0.4391372 0.8541372 -0.2785822 0.421993 0.023819
37.51917 74.44897 76.57018 0.4469974 -0.02086158 0.8942919 0.997835 0.992471
-8.386996 49.52102 -52.55086 0.1656987 0.422465 0.8911045 0.188193 0.567694
-46.28945 50.78111 -54.99172 0.6662199 0.646671 -0.37144 0.179533 0.393019
35.08286 50.78185 -54.99133 -0.4098372 0.4180481 -0.8107214 0.179533 0.964682
-44.0062 73.05679 -54.36531 0.2064554 -0.9328802 0.2951452 0.179533 0.035729
35.08286 73.05679 -54.99133 -0.8187599 -0.4064908 -0.4054593 0.179533 0.964682
35.08286 73.05675 -50.63227 -0.541757 -0.8403718 0.01657273 0.188193 0.964682
2.714552 70.27242 -3.480463 0.4197459 -0.8833767 0.2084685 0.499927 0.595483
36.127 73.05672 75.17799 -0.5572618 -0.6056354 -0.5680361 0.989176 0.976592
36.127 49.38967 18.79451 -0.5661916 0.5901539 0.5754525 0.638475 0.976592
-5.638558 73.05672 75.17799 0.5777696 -0.5844024 -0.569786 0.989176 0.500206
-5.638558 49.38967 75.17799 0.5876274 0.5722651 -0.5720199 0.989176 0.500206
-5.635255 49.39022 18.79451 0.5772502 0.5760911 0.5787066 0.638475 0.659001
-47.40411 70.27242 17.40231 0.4134249 -0.8111081 -0.4137433 0.629816 0.492266
-5.638558 73.05672 18.79451 0.5746947 -0.5786364 0.5787105 0.638475 0.500206
37.31226 72.97428 19.01066 -0.001745484 -0.7133539 0.7008018 0.638475 0.976592
36.99096 49.38967 76.32279 -0.4074782 0.8098342 -0.4220546 0.753932 0.976592
-48.61992 73.08498 19.0934 -0.5699381 -0.5943524 0.5673762 0.638475 0.023819
-7.034047 49.39025 18.79449 -0.5761311 0.576877 0.5790387 0.638475 0.404928
-7.030744 73.05672 18.79451 -0.5748692 -0.5785545 0.5786192 0.638475 0.484326
-46.59005 49.53503 17.39482 0.5105115 0.6798968 -0.5264204 0.629816 0.404928
-7.030751 49.38967 75.17799 -0.5866932 0.5727265 -0.5725168 0.989176 0.484326
-7.030751 73.05672 75.17799 -0.578171 -0.5830115 -0.5708028 0.989176 0.484326
-48.33715 49.38967 18.91263 -0.5789623 0.5693026 0.5836927 0.638475 0.023819
-47.40412 73.05672 75.17799 0.5604244 -0.5983095 -0.5726694 0.989176 0.023819
35.95858 70.26992 -37.56292 -0.3119119 -0.7396302 0.5963709 0.287774 0.766188
36.127 49.39584 17.36359 -0.3005517 0.9030987 -0.3067268 0.629816 0.976592
35.06215 73.03413 -75.9622 -0.4475922 -0.8942351 0.002209217 0.050580 0.930740
-46.35911 50.78933 -81.2602 0.6347802 0.4752953 0.6092196 0.030261 0.069672
37.51641 74.44862 -72.61843 0.9999207 -0.01243192 0.002027807 0.458795 0.992471
36.127 70.27242 17.40231 -0.5704706 -0.5867515 -0.5747051 0.458795 0.976592
-48.7963 74.44897 76.57018 -0.7073492 -0.03437835 0.7060279 0.997835 0.007940
-48.6828 73.95893 -53.86648 -0.6030277 -0.7222275 0.3387406 0.006348 0.041905
-47.97113 49.38967 76.17669 -0.01393205 0.9998281 -0.01223624 0.908356 0.007940
-46.35319 72.99464 -75.62254 0.872197 -0.4867071 -0.04887356 0.022489 0.069672
37.14766 49.39706 -44.37328 -0.5323574 0.7296864 0.4291307 0.006348 0.958506
34.98666 50.84092 -81.92542 -0.7090903 0.7051159 0.001576676 0.049644 0.958510
-45.81951 50.69412 -81.03127 -0.01118132 0.2354376 -0.9718252 0.009107 0.041905
-43.92364 0.663472 0.01306705 0.8054309 0.4278041 0.4102008 0.659190 0.063518
-45.34512 22.94677 -70.82832 -0.0113524 -0.9935212 -0.1130792 0.049644 0.007940
-7.725094 0.6640706 -17.0639 0.4200226 0.8479007 0.3234893 0.285609 0.443304
-43.84949 0.6652786 -67.02026 0.3836019 0.8601853 0.3360518 0.274785 0.310975
-10.15093 21.5459 -16.51611 0.4147824 -0.5970254 0.6866704 0.421993 0.063518
6.503584 21.54212 -38.72574 -0.0354027 -0.9992722 0.01420048 0.274785 0.651061
33.57937 0.7004776 -39.58023 -0.3248348 0.9457702 -0.001089858 0.283445 0.936893
6.939863 0.6631256 -39.14594 0.1861294 0.9816579 0.04127439 0.274785 0.651061
0.6812617 21.5459 -1.821969e-05 0.8189701 -0.5686514 0.07696513 0.521575 0.651061
-43.92365 0.6631256 -6.40323 0.6029511 0.7926866 -0.08998877 0.512915 0.063518
6.195029 0.6631256 -1.392206 -0.6488451 0.6759923 -0.3493344 0.512916 0.635182
6.195029 21.5459 -1.392206 -0.3217327 -0.6311479 -0.7057906 0.512916 0.635182
-43.92364 21.5459 -1.392213 0.3759917 -0.9234887 -0.07615029 0.512915 0.063518
-2.682739 0.6647386 54.83062 0.01106105 0.9288918 -0.3701859 0.815990 0.524025
-3.550267 20.69616 71.69753 -0.6002378 -0.1748405 -0.7804776 0.967528 0.524025
-2.158086 20.6951 71.68949 0.6295274 -0.2022046 -0.7502058 0.967528 0.539904
-3.55026 21.5459 -2.78437e-05 -0.6640413 -0.6709557 0.3299509 0.521575 0.524025
3.535583 0.6631256 -1.893393e-05 0.5151583 0.8555368 0.05166015 0.521575 0.539904
-3.55026 0.6631256 0.02497376 -0.3320919 0.664655 0.6692897 0.521575 0.524025
-43.92364 21.5459 -2.78437e-05 0.4058073 -0.4052436 0.8192058 0.521575 0.063518
-45.04531 8.839088 -67.69809 0.003176266 0.6136345 0.7895839 0.092940 0.047639
32.91546 8.538132 -68.92548 -0.5512162 0.611065 0.5681199 0.084281 0.815776
3.583648 8.685359 -83.85563 0.003895095 0.99999 0.002208661 0.000000 0.184636
-45.19011 21.57335 72.65977 -0.02661843 -0.9996409 0.00310592 0.976187 0.047639
-45.41214 0.6530632 73.09771 -0.4484211 0.01056999 0.89376 0.976187 0.047639
34.32424 21.66258 73.05518 0.02916472 -0.8940404 0.4470361 0.906047 0.936893
-43.68769 21.54309 -44.73606 0.5966312 -0.7570605 -0.2662531 0.101600 0.063518
33.99189 21.62152 -60.51395 -0.2452125 -0.9694691 -0.0006871757 0.209841 0.936893
-43.92364 0.6631256 71.69753 0.2052318 0.8244551 -0.5274028 0.967528 0.063518
33.67485 0.6857126 72.89061 -0.2242509 0.9370781 -0.2675746 0.967528 0.936893
32.63862 0.7036118 -67.52098 -0.5324067 0.6358435 0.5587899 0.101600 0.936893
36.91548 74.45041 -47.38699 0.9286995 0.2732567 -0.2506949 0.188193 0.992471
1.037431 74.44524 -3.480428 0.3902659 0.7888207 0.4748204 0.499927 0.023819
-47.40411 95.33183 -3.48047 0.6142613 -0.0742485 0.7856018 0.499927 0.023819
-47.40411 95.33183 -12.96064 0.05346358 -0.0034643 0.9985638 0.491267 0.023819
-5.260671 95.33002 -9.676113 0.6079345 -0.3966028 -0.6878384 0.491267 0.579603
4.295177 95.38915 -39.22123 -0.2335828 -0.9341702 -0.2697502 0.283445 0.579603
0.4174462 74.44905 -9.313157 -0.76276 0.4090627 0.5008641 0.421993 0.476386
-47.40411 74.44905 -6.456347 0.07156003 -0.03322124 -0.9968829 0.421993 0.023819
37.23067 98.29247 76.35575 0.3139849 -0.2902499 0.9039737 0.997835 0.992471
35.08328 101.7589 -53.59906 -0.3856847 0.00430399 0.9226206 0.188193 0.964682
-48.7796 99.54475 -39.67895 -0.7198334 0.1626775 -0.6748156 0.274785 0.035729
-1.577786 74.48975 -39.23599 0.6063248 0.7252238 -0.3262216 0.274785 0.766188
-48.50155 74.44918 -53.59904 -0.6671219 0.5740306 0.4748023 0.188193 0.567694
-46.28945 75.84049 -54.99172 0.6670393 0.6448888 -0.3730645 0.179533 0.393019
35.08286 75.84123 -54.99133 -0.3978201 0.4108389 -0.8203357 0.179533 0.964682
-45.64553 98.94558 -54.01896 0.6589311 -0.7038813 -0.2652563 0.179533 0.393019
35.08286 98.1162 -54.99133 -0.7940864 -0.4364962 -0.4229631 0.179533 0.964682
2.714552 95.33183 -3.48047 0.4894003 -0.8378056 0.2420106 0.499927 0.595483
-5.638558 98.11605 75.17799 0.58935 -0.5712301 -0.5712816 0.989176 0.500206
-5.638558 74.44905 75.17799 0.5876266 0.5722655 -0.5720203 0.989176 0.500206
-5.635255 74.44959 18.7945 0.5792353 0.5768156 0.575995 0.638475 0.659001
-47.40411 95.33183 17.40231 0.4251293 -0.7966062 -0.4297484 0.629816 0.492266
-5.638558 98.11605 18.7945 0.5813724 -0.5752926 0.5753646 0.638475 0.500206
37.42673 98.27657 18.5063 0.8171197 -0.4083138 0.406934 0.638475 0.976592
-48.20022 98.1429 18.87804 -0.3352056 -0.6823434 0.6496496 0.753932 0.007940
37.04471 74.44905 76.32414 0.02338936 0.8943348 -0.4467866 0.908356 0.976592
-7.034047 74.44963 18.79449 -0.5866224 0.5657738 0.5794602 0.638475 0.404928
-7.030744 98.11605 18.7945 -0.576847 -0.5775622 0.5776413 0.638475 0.484326
-7.030751 74.44905 75.17799 -0.5866933 0.5727264 -0.5725167 0.989176 0.484326
-7.030751 98.11605 75.17799 -0.5781683 -0.5830168 -0.5708001 0.989176 0.484326
-47.40412 98.11605 75.17799 0.5618991 -0.5996217 -0.569845 0.989176 0.023819
36.127 74.45521 17.36359 -0.5340937 0.8019757 -0.2675423 0.629816 0.976592
36.127 95.33183 17.40231 -0.2678195 -0.801348 -0.5348963 0.629816 0.976592
34.77959 98.27062 -81.78207 -0.3303455 -0.6286019 -0.7040821 0.050580 0.930740
37.19895 75.73021 -82.18473 -0.1365956 0.8678101 -0.4777522 0.030261 0.930740
-48.58034 75.74386 -82.19894 -0.1430567 0.8178954 -0.5572988 0.030261 0.069672
36.127 74.44905 -37.58901 -0.4406616 0.4036493 0.8018008 0.458795 0.976592
36.127 95.31028 -37.46279 -0.8234751 -0.402614 0.3997381 0.458795 0.976592
37.14378 74.46102 18.57788 0.581519 0.5736095 0.5768949 0.319015 0.992471
-44.33358 74.5587 17.39983 0.4913208 0.7025635 -0.5147896 0.598575 0.023819
-48.7963 99.50838 76.57018 -0.8329166 -0.01104441 0.5532884 0.997835 0.007940
-46.25843 98.20377 -78.62059 0.7977298 -0.4144145 -0.4380499 0.006348 0.041905
-47.97114 74.44905 76.1767 -0.012375 0.999853 -0.01187098 0.908356 0.007940
37.51492 110.0079 -39.85012 0.8993155 0.4026596 -0.1705777 0.274785 0.966217
-43.37941 113.297 -36.18726 -0.1951548 0.947494 -0.2533174 0.296493 0.069726
32.1023 113.297 73.08018 0.1976944 0.9392202 0.2806816 0.976128 0.930685
-43.37941 113.2922 73.08018 -0.1896703 0.9460316 0.2627729 0.976128 0.069726
32.10231 113.2876 -36.18726 0.1918649 0.9493544 -0.2488255 0.296493 0.930685
-48.68909 109.9763 -39.68966 -0.8223168 0.5217638 -0.2270634 0.296493 0.069726
37.51918 110.1646 -82.83501 0.3104749 0.3938459 -0.8651536 0.006348 0.992471
37.13497 110.1646 75.84058 0.6086705 0.6295155 0.4829395 0.997835 0.992471
-48.7963 110.1646 76.57018 -0.4276829 0.4752186 0.7689308 0.997835 0.007940
-48.79629 110.1646 -82.83501 -0.06347565 0.5351123 -0.8423928 0.006348 0.007940
37.5075 110.1576 -53.45324 0.8372939 0.5467486 0.002221947 0.188193 0.972622
-48.76457 110.1507 -53.4234 -0.9506587 0.3102245 0.002969846 0.188193 0.027789
-48.71557 74.46474 17.71375 -0.5903942 0.5601296 0.5811105 0.753932 0.015880
3 6 5 3 
3 6 3 4 
3 2 1 15 
3 15 1 9 
3 15 9 14 
3 4 3 14 
3 4 14 9 
3 7 3 5 
3 7 5 6 
3 4 7 6 
3 9 7 4 
3 7 14 3 
3 14 7 0 
3 40 24 8 
3 40 8 31 
3 0 44 14 
3 36 41 9 
3 10 43 34 
3 10 34 38 
3 42 11 12 
3 42 12 35 
3 11 10 38 
3 11 38 12 
3 9 41 13 
3 9 13 38 
3 0 9 38 
3 38 13 14 
3 35 12 38 
3 38 34 35 
3 7 9 0 
3 14 13 36 
3 18 16 17 
3 18 17 19 
3 20 19 17 
3 28 32 1 
3 33 21 15 
3 21 2 15 
3 33 28 21 
3 28 33 32 
3 20 39 23 
3 22 20 23 
3 18 19 20 
3 18 20 22 
3 17 39 20 
3 16 23 39 
3 16 39 17 
3 23 18 22 
3 23 16 18 
3 25 27 31 
3 31 27 30 
3 31 44 25 
3 40 26 44 
3 30 27 26 
3 30 26 29 
3 27 25 26 
3 26 25 44 
3 26 40 29 
3 30 29 40 
3 30 40 31 
3 14 33 15 
3 36 9 1 
3 32 36 1 
3 14 36 37 
3 37 33 14 
3 37 32 33 
3 36 32 37 
3 13 23 36 
3 28 1 2 
3 21 28 2 
3 10 42 43 
3 42 10 11 
3 23 24 39 
3 38 9 10 
3 38 10 9 
3 24 23 8 
3 36 23 39 
3 54 53 48 
3 54 48 49 
3 47 46 62 
3 62 46 50 
3 62 50 51 
3 49 48 50 
3 48 52 56 
3 52 53 54 
3 49 52 54 
3 50 56 52 
3 50 52 49 
3 53 52 48 
3 51 50 56 
3 51 56 45 
3 88 71 55 
3 88 55 86 
3 90 56 50 
3 57 83 89 
3 57 89 59 
3 91 58 60 
3 91 60 82 
3 58 57 59 
3 58 59 60 
3 56 90 61 
3 56 61 59 
3 45 56 59 
3 45 59 87 
3 59 51 87 
3 82 60 59 
3 59 89 82 
3 87 51 45 
3 61 51 59 
3 50 61 90 
3 51 61 50 
3 65 63 71 
3 65 71 66 
3 67 66 71 
3 75 81 46 
3 85 68 62 
3 68 47 62 
3 85 75 68 
3 75 85 81 
3 67 64 70 
3 69 67 70 
3 65 66 67 
3 65 67 69 
3 71 64 67 
3 63 70 71 
3 70 64 71 
3 70 65 69 
3 70 63 65 
3 72 77 79 
3 72 74 77 
3 79 88 72 
3 88 73 78 
3 77 74 73 
3 77 73 76 
3 74 72 73 
3 73 72 78 
3 73 88 76 
3 77 76 88 
3 77 88 79 
3 80 62 51 
3 50 80 51 
3 80 85 62 
3 81 50 46 
3 80 50 90 
3 81 90 50 
3 90 81 85 
3 85 80 90 
3 84 70 90 
3 45 72 87 
3 75 46 47 
3 68 75 47 
3 57 91 83 
3 91 57 58 
3 48 56 50 
3 59 56 57 
3 59 57 56 
3 71 70 55 
3 88 86 72 
3 91 89 83 
3 78 72 45 
3 91 92 89 
3 116 113 117 
3 94 113 116 
3 112 116 93 
3 121 93 116 
3 95 98 97 
3 99 114 120 
3 99 120 118 
3 99 118 120 
3 120 98 119 
3 101 98 120 
3 118 101 120 
3 118 108 101 
3 96 95 100 
3 96 100 123 
3 100 99 123 
3 105 97 104 
3 104 97 98 
3 100 95 103 
3 103 95 102 
3 105 102 97 
3 95 97 102 
3 106 122 110 
3 122 99 110 
3 110 99 100 
3 122 106 108 
3 98 95 119 
3 103 104 98 
3 103 98 100 
3 101 110 100 
3 101 100 98 
3 102 105 104 
3 102 104 103 
3 101 108 106 
3 101 106 110 
3 116 112 109 
3 116 109 107 
3 109 106 107 
3 106 109 111 
3 121 106 111 
3 121 111 93 
3 121 107 106 
3 122 108 118 
3 121 116 107 
3 112 93 111 
3 112 111 109 
3 96 113 119 
3 96 123 113 
3 114 113 123 
3 120 114 123 
3 94 120 119 
3 113 94 119 
3 113 114 115 
3 123 99 120 
3 117 122 118 
3 117 118 116 
3 99 122 114 
3 131 127 128 
3 131 128 130 
3 126 125 141 
3 141 125 135 
3 141 135 129 
3 130 128 129 
3 130 129 135 
3 129 128 135 
3 135 128 130 
3 130 128 127 
3 130 127 131 
3 166 149 132 
3 166 132 164 
3 162 124 147 
3 124 129 133 
3 136 139 134 
3 124 136 135 
3 137 159 165 
3 137 165 139 
3 158 138 140 
3 158 140 157 
3 138 137 139 
3 138 139 140 
3 136 124 133 
3 136 133 139 
3 157 140 139 
3 139 165 157 
3 135 136 134 
3 129 135 134 
3 135 129 124 
3 144 143 149 
3 163 155 125 
3 156 145 141 
3 145 126 141 
3 156 163 145 
3 163 156 155 
3 144 162 147 
3 146 144 147 
3 142 143 144 
3 142 144 146 
3 166 164 148 
3 149 162 144 
3 147 132 142 
3 147 142 146 
3 148 153 154 
3 148 151 153 
3 154 166 148 
3 166 150 179 
3 153 151 150 
3 153 150 152 
3 151 148 150 
3 150 148 179 
3 150 166 152 
3 129 156 141 
3 155 135 125 
3 129 135 160 
3 129 160 161 
3 155 160 135 
3 161 156 129 
3 161 155 156 
3 160 155 161 
3 134 179 148 
3 163 125 126 
3 145 163 126 
3 137 158 159 
3 158 137 138 
3 139 136 137 
3 139 137 136 
3 124 158 177 
3 165 159 176 
3 158 157 173 
3 157 165 176 
3 157 176 173 
3 175 174 170 
3 175 170 172 
3 167 172 171 
3 174 167 171 
3 170 169 171 
3 170 171 168 
3 170 168 172 
3 171 169 174 
3 172 168 171 
3 174 169 170 
3 176 178 177 
3 176 177 173 
3 159 136 178 
3 159 178 176 
3 164 175 172 
3 164 172 134 
3 147 167 174 
3 147 174 132 
3 132 174 175 
3 132 175 164 
3 158 173 177 
3 124 177 167 
3 124 167 147 
3 172 178 136 
3 172 136 134 
3 142 132 149 
3 142 149 143 
3 153 152 166 
3 153 166 154 
