ply
format ascii 1.0
comment VCGLIB generated
element vertex 266
property float x
property float y
property float z
property float nx
property float ny
property float nz
property float texture_u
property float texture_v
element face 465
property list uchar int vertex_indices
end_header
-35.43411 17.69569 -39.21892 -0.9999859 0.0008530575 0.005253385 0.274785 0.007940
0.7545379 17.69277 -2.531325 0.5426065 0.7553518 0.367453 0.499927 0.023819
1.288524 32.88367 -2.531355 0.7057859 -0.5201948 0.4808988 0.499927 0.023819
0.9617631 32.88367 -3.725069 -0.4905312 -0.8338451 -0.2531433 0.491267 0.579603
0.9617631 17.69554 -3.543897 -0.114729 0.9807369 -0.1580894 0.491267 0.579603
-5.619384 30.11458 -11.76991 0.5159152 0.04357485 0.8555307 0.421993 0.476386
-34.47722 32.88367 -6.773497 0.2308891 -0.9166682 0.3262049 0.421993 0.023819
-34.47721 17.69554 -4.695724 0.4391376 0.8541372 -0.2785818 0.421993 0.023819
27.28785 35.9213 55.68982 0.4460932 -0.004899248 0.8949731 0.997835 0.992471
27.28544 35.92114 -56.74828 0.9993522 0.02386021 0.02694348 0.189818 0.964682
-6.099893 17.79107 -38.22047 0.4965775 0.5796651 0.6460645 0.188193 0.567694
-33.66651 18.70754 -39.99571 0.6475559 0.7056601 -0.2876025 0.179533 0.393019
25.51591 18.70808 -39.99543 -0.4103547 0.4275716 -0.805476 0.179533 0.964682
25.51591 34.90875 -39.99543 -0.8196627 -0.4056386 -0.4044878 0.179533 0.964682
1.696478 17.69931 -28.47805 0.4734465 0.81339 -0.3380018 0.274785 0.766188
26.27532 34.90867 54.67728 -0.8163006 -0.3973812 -0.4192153 0.989176 0.976592
26.27532 17.69554 54.67728 -0.3327518 0.6655322 -0.6680892 0.989176 0.976592
-4.100947 34.90867 54.67728 0.5774618 -0.577215 -0.577374 0.989176 0.500206
-4.100947 17.69554 54.67728 0.5773972 0.5773972 -0.5772563 0.989176 0.500206
-4.091347 17.69595 13.66932 0.5762895 0.5767233 0.5790341 0.638475 0.500206
-34.47721 32.88367 12.65678 0.3678904 -0.926841 -0.07498352 0.629816 0.492266
-4.100947 34.90867 13.66932 0.5748864 -0.578425 0.5787315 0.638475 0.500206
27.04693 34.91793 13.88628 0.7279768 -0.4911736 0.4783285 0.638475 0.976592
27.28785 17.69554 55.68887 0.8979093 -0.01188862 0.4400201 0.908356 0.992471
-34.47722 34.90867 13.66931 0.4034588 -0.4165337 0.8146905 0.638475 0.023819
-5.115892 17.69596 13.66931 -0.5763143 0.5785835 0.5771508 0.638475 0.404928
-5.11349 34.90867 13.66932 -0.4105936 -0.8146038 0.4096749 0.638475 0.484326
-33.88516 17.80126 12.65133 0.6151658 0.7776747 -0.1295879 0.629816 0.404928
-5.113495 17.69554 54.67728 -0.5866932 0.5727265 -0.5725168 0.989176 0.484326
-5.113495 34.90867 54.67728 -0.6789312 -0.3257009 -0.6580057 0.989176 0.484326
-35.20028 35.14898 55.59284 -0.01983251 -0.999723 0.01267328 0.989176 0.023819
2.010418 32.88367 -27.59739 0.5253927 -0.8316379 -0.179836 0.287774 0.766188
26.27532 17.70002 12.62862 -0.5339906 0.8018966 -0.2679845 0.629816 0.976592
26.27532 32.88367 12.65678 -0.2676581 -0.8015584 -0.5346618 0.629816 0.976592
-33.71212 34.89908 -55.23549 0.9114791 -0.4079135 0.05303176 0.050580 0.069672
25.50085 34.89227 -55.24763 -0.4480288 -0.8940133 0.003226572 0.050580 0.930740
-33.53451 18.74595 -59.41367 0.7037868 0.7103842 0.006189556 0.030261 0.069672
26.81059 34.99212 -38.31278 0.8264508 -0.5616536 -0.03904142 0.458795 0.992471
26.27532 17.69554 -27.33865 -0.4332806 0.3828384 0.815906 0.458795 0.976592
26.27532 32.868 -27.24685 -0.8176814 -0.4082317 0.4058867 0.458795 0.976592
-35.41846 34.98255 -39.04741 -0.2401564 -0.7530763 -0.6125365 0.006348 0.041905
26.59028 17.69554 13.74132 -0.001953047 0.706228 0.7079818 0.753932 0.992471
-34.88961 17.69554 55.40364 -0.03036457 0.9995388 0.000375125 0.908356 0.007940
27.12123 17.69571 -34.51748 0.9346527 0.3548959 0.02175239 0.006348 0.958506
25.46522 18.75084 -59.58487 -0.7067758 0.7074323 0.002732759 0.049644 0.958510
-35.15581 17.69554 13.75523 -0.5795935 0.5565355 0.5952643 0.753932 0.015880
-35.43411 35.92146 -39.21892 -0.2513253 0.9637483 0.08958092 0.274785 0.007940
0.7545354 35.91855 -2.531325 0.5426066 0.7553517 0.3674532 0.499927 0.023819
1.288525 51.10943 -2.531355 0.713174 -0.5145677 0.4760283 0.499927 0.023819
0.9617631 51.10943 -3.725068 -0.4905307 -0.8338454 -0.2531434 0.491267 0.579603
0.9617631 35.92132 -3.543897 -0.1147293 0.980737 -0.1580897 0.491267 0.579603
-5.619383 48.34034 -11.76991 0.515915 0.04357542 0.8555308 0.421993 0.476386
-34.47721 51.10943 -6.773497 0.230889 -0.9166682 0.3262048 0.421993 0.023819
-34.47721 35.92131 -4.695725 0.4391371 0.8541374 -0.2785822 0.421993 0.023819
27.28785 54.14706 55.68982 0.4460931 -0.004899336 0.8949732 0.997835 0.992471
-6.099895 36.01684 -38.22047 0.1961673 0.4458061 0.8733701 0.188193 0.567694
-33.66651 36.93332 -39.99571 0.6556968 0.6925457 -0.3007358 0.179533 0.393019
25.51591 36.93386 -39.99543 -0.4095 0.4169203 -0.8114723 0.179533 0.964682
25.51591 53.13451 -39.99543 -0.8183594 -0.4069358 -0.4058216 0.179533 0.964682
25.51591 53.13448 -38.25815 -0.6167162 -0.7859212 -0.04459862 0.274785 0.964682
1.696478 35.92509 -28.47805 0.4725001 0.8126296 -0.3411401 0.274785 0.766188
26.27532 53.13447 54.67728 -0.8163006 -0.3973812 -0.4192153 0.989176 0.976592
26.27532 35.92131 54.67728 -0.3327519 0.6655321 -0.6680891 0.989176 0.976592
-4.100947 53.13447 54.67728 0.5774047 -0.5772786 -0.5773675 0.989176 0.500206
-4.100947 35.92131 54.67728 0.5773634 0.5773634 -0.577324 0.989176 0.500206
-4.098545 35.92171 13.66932 0.5763465 0.5766601 0.5790405 0.638475 0.659001
-34.47721 51.10943 12.65678 0.3678905 -0.9268408 -0.07498352 0.629816 0.492266
-4.100947 53.13447 13.66932 0.5748065 -0.5785849 0.5786511 0.638475 0.500206
27.04693 53.14373 13.88628 0.7254564 -0.4944706 0.4787607 0.638475 0.976592
27.28785 35.92131 55.68887 0.8979093 -0.0118887 0.4400201 0.908356 0.992471
-34.47722 53.13447 13.66931 0.4001108 -0.4241615 0.8124028 0.638475 0.023819
-5.115892 35.92173 13.66931 -0.5670075 0.5773754 0.5874864 0.638475 0.404928
-5.11349 53.13447 13.66932 -0.4105935 -0.8146039 0.4096748 0.638475 0.484326
-33.88516 36.02703 12.65133 0.6151659 0.7776747 -0.1295874 0.629816 0.404928
-5.113495 35.92131 54.67728 -0.5866932 0.5727265 -0.5725168 0.989176 0.484326
-5.113495 53.13447 54.67728 -0.6789311 -0.3257009 -0.6580057 0.989176 0.484326
-35.20028 53.37477 55.59283 0.4230084 -0.9060654 0.01046105 0.989176 0.023819
1.454398 51.40625 -28.00926 0.5133275 -0.8014158 -0.3069652 0.287774 0.766188
26.27532 35.92579 12.62862 -0.5339906 0.8018968 -0.2679844 0.629816 0.976592
26.27532 51.10943 12.65678 -0.2684368 -0.7999318 -0.5367036 0.629816 0.976592
-33.71212 53.12484 -55.23549 0.9076822 -0.4179531 0.03779189 0.050580 0.069672
25.50085 53.11803 -55.24763 -0.4477537 -0.8941548 0.00194633 0.050580 0.930740
-33.53451 36.97173 -59.41367 0.7037868 0.7103842 0.006189556 0.030261 0.069672
27.28584 54.14681 -52.8157 0.9999869 -0.003720751 0.003525877 0.458795 0.992471
26.27532 35.92131 -27.33865 -0.4367989 0.3905948 0.8103347 0.458795 0.976592
26.27532 51.09375 -27.24685 -0.821491 -0.4044252 0.401986 0.458795 0.976592
-35.32145 37.20659 13.61369 0.2949716 0.8373092 0.4603316 0.547043 0.007940
-34.87777 53.16069 -39.5908 0.3139616 -0.9490201 -0.02808802 0.006348 0.041905
26.59028 35.92131 13.74132 -0.00195787 0.7059819 0.7082272 0.753932 0.992471
-34.88961 35.92131 55.40363 -0.009157842 0.9998376 0.01552572 0.908356 0.007940
27.15347 35.93191 -34.49485 0.8701887 0.4920534 0.02559638 0.006348 0.958506
25.46522 36.97662 -59.58487 -0.7067758 0.7074323 0.002732759 0.049644 0.958510
-35.43382 54.14726 -38.96886 -0.9997199 0.0006149454 0.02365864 0.274785 0.007940
0.7545276 54.14434 -2.531325 0.5426468 0.7553077 0.3674841 0.499927 0.023819
1.288524 69.33524 -2.531355 0.6112543 -0.6764619 0.4108132 0.499927 0.023819
0.9617631 69.33524 -3.725069 -0.3534409 -0.8989979 -0.258616 0.491267 0.579603
0.9617631 54.14711 -3.543897 -0.164392 0.9632086 -0.2126134 0.491267 0.579603
-5.619498 62.17612 -11.69474 0.5868961 0.2818794 0.7590106 0.421993 0.476386
-34.47721 69.33524 -6.773498 0.2207621 -0.7100892 0.6686087 0.421993 0.023819
-34.47721 54.14711 -4.695724 0.3624419 0.8523762 -0.3769493 0.421993 0.023819
-5.945915 54.17707 -38.74288 0.3255934 0.2499941 0.9118618 0.274785 0.236870
1.781425 70.54481 -28.85435 0.5291864 -0.6630811 -0.5294195 0.285610 0.104540
26.81558 71.63966 55.51154 0.02570528 -0.7097126 0.7040222 0.997835 0.992471
-33.66651 55.15911 -39.99571 0.6543725 0.6948727 -0.2982426 0.179533 0.393019
25.51591 55.15965 -39.99543 -0.4096358 0.4171993 -0.8112603 0.179533 0.964682
25.51591 71.36032 -39.99543 -0.818696 -0.4065538 -0.4055254 0.179533 0.964682
1.696478 54.15088 -28.47805 0.524024 0.8470498 -0.0889125 0.274785 0.766188
26.27532 54.14711 13.66932 -0.5668445 0.5890806 0.5759092 0.638475 0.976592
-4.100947 71.36022 54.67728 0.5899367 -0.5720094 -0.5698948 0.989176 0.500206
-4.100947 54.14711 54.67728 0.5876274 0.5722651 -0.5720199 0.989176 0.500206
-4.098545 54.14751 13.66932 0.577302 0.5769456 0.5778029 0.638475 0.659001
-34.47721 69.33524 12.65678 0.3678904 -0.926841 -0.07498351 0.629816 0.492266
-4.100947 71.36022 13.66932 0.5765625 -0.5777039 0.5777836 0.638475 0.500206
26.90368 54.14711 55.5099 -0.3855317 0.8311303 -0.4007339 0.753932 0.976592
-35.36147 71.38078 13.8867 -0.5717567 -0.5921248 0.5678754 0.638475 0.023819
-5.11349 71.36022 13.66932 -0.574949 -0.5783945 0.5786998 0.638475 0.484326
-33.88517 54.25281 12.65133 0.6158848 0.777108 -0.129573 0.629816 0.404928
-5.12309 54.14755 13.66931 -0.5760741 0.5769402 0.5790324 0.638475 0.484326
-5.113495 54.14711 54.67728 -0.5867271 0.5727595 -0.5724491 0.989176 0.484326
-5.113495 71.36022 54.67728 -0.5782277 -0.5829494 -0.5708088 0.989176 0.484326
-34.47722 71.36022 54.67728 0.5604244 -0.5983096 -0.5726693 0.989176 0.023819
26.15283 69.33342 -27.31967 -0.305662 -0.738552 0.6009257 0.287774 0.766188
25.50085 71.34385 -55.24763 -0.4478235 -0.8941155 0.003412153 0.050580 0.930740
-33.71717 55.16509 -59.10089 0.63478 0.4752956 0.6092195 0.030261 0.069672
27.19473 71.81893 -38.21876 0.3008453 -0.95237 -0.04983451 0.458795 0.992471
26.27532 69.33524 12.65678 -0.5702656 -0.5870537 -0.5746 0.458795 0.976592
26.27532 54.14823 12.64972 -0.3005269 0.9030785 -0.3068106 0.598575 0.976592
26.9864 71.34685 13.72169 0.002707399 -0.6972045 0.7168671 0.598575 0.992471
-35.48975 72.37287 55.68982 -0.7064028 -0.03436149 0.7069755 0.997835 0.007940
-35.1556 71.40004 -39.58336 0.08005533 -0.94322 -0.3223775 0.006348 0.041905
-34.88961 54.14711 55.40364 -0.01243946 0.9998488 -0.01214792 0.908356 0.007940
-33.71288 71.31512 -55.0006 0.9065357 -0.4200135 0.04220895 0.022489 0.069672
27.01803 54.15248 -32.27325 -0.531575 0.7363872 0.4185236 0.006348 0.958506
25.44595 55.20261 -59.58471 -0.7090902 0.705116 0.00157676 0.049644 0.958510
-33.32473 55.09584 -58.93441 -0.01118114 0.2354381 -0.9718251 0.009107 0.041905
-35.15581 54.14711 13.75523 -0.5789573 0.569298 0.5837023 0.753932 0.015880
25.44744 91.49593 -59.5853 -0.4504609 0.8918525 -0.04103716 0.049644 0.958506
-35.43029 72.39159 -39.17753 -0.9087244 0.2161415 -0.3570753 0.274785 0.007940
0.7545469 72.3701 -2.531325 0.4124269 0.8682233 0.2758483 0.499927 0.023819
1.288527 87.561 -2.531355 0.6152412 -0.6763683 0.4049741 0.499927 0.023819
-3.826108 87.55968 -7.037472 0.03796761 -0.9749249 0.2192712 0.491267 0.579603
0.9617631 72.37287 -3.543897 -0.4604384 0.6736762 -0.5780631 0.491267 0.579603
-34.47721 84.05021 -3.543903 0.3286487 -0.2570912 -0.9087873 0.491267 0.023819
1.168034 89.22073 -28.80827 0.08838625 -0.9216257 -0.3778808 0.274785 0.091307
-5.904143 72.46591 -12.92497 0.6788385 0.7093716 0.1896582 0.421993 0.476386
-34.47721 79.11093 -11.64423 0.5204481 0.5054796 0.6882036 0.421993 0.023819
27.28785 90.59863 55.68982 0.4466081 -0.007067399 0.8947018 0.997835 0.992471
1.661612 72.37287 -38.83618 0.1561297 0.7506783 0.6419545 0.188193 0.567694
-33.66651 73.38486 -39.99571 0.6537954 0.696962 -0.2946108 0.179533 0.393019
25.51591 73.38541 -39.99543 -0.4095023 0.4170622 -0.8113981 0.179533 0.964682
25.51591 89.58608 -39.99543 -0.8184016 -0.4068934 -0.4057792 0.179533 0.964682
26.27532 89.58598 54.67728 -0.8163006 -0.3973812 -0.4192154 0.989176 0.976592
26.27532 72.37287 54.67728 -0.3327519 0.6655321 -0.6680891 0.989176 0.976592
-4.100947 89.58598 54.67728 0.5774047 -0.5772786 -0.5773675 0.989176 0.500206
-4.100947 72.37287 54.67728 0.5773634 0.5773634 -0.577324 0.989176 0.500206
-4.098545 72.37327 13.66932 0.5763465 0.5766601 0.5790405 0.638475 0.659001
-34.47721 87.561 12.65678 0.3678904 -0.926841 -0.07498353 0.629816 0.492266
-4.100947 89.58598 13.66932 0.5748066 -0.5785848 0.578651 0.638475 0.500206
27.04693 89.59525 13.88628 0.7248819 -0.4968683 0.4771458 0.638475 0.976592
27.28785 72.37287 55.68887 0.8979093 -0.01188868 0.4400201 0.908356 0.992471
-35.36147 89.60654 13.8867 -0.5717521 -0.5921596 0.5678437 0.638475 0.023819
-5.11349 89.58598 13.66932 -0.574949 -0.5783945 0.5786998 0.638475 0.484326
-33.88516 72.4786 12.65133 0.6151657 0.7776748 -0.1295881 0.629816 0.404928
-5.12309 72.37331 13.66931 -0.5760741 0.5769403 0.5790324 0.638475 0.484326
-5.113495 72.37287 54.67728 -0.586727 0.5727595 -0.5724491 0.989176 0.484326
-5.113495 89.58598 54.67728 -0.5782277 -0.5829494 -0.5708088 0.989176 0.484326
-34.47722 89.58598 54.67728 0.5604244 -0.5983096 -0.5726693 0.989176 0.023819
26.22248 87.55828 -27.31546 -0.6588543 -0.699721 0.2762273 0.287774 0.766188
26.27532 72.37736 12.62862 -0.6709829 0.6581895 -0.3414213 0.629816 0.976592
26.27532 87.561 12.65678 -0.3337236 -0.666432 -0.6667061 0.629816 0.976592
-33.71212 89.57642 -55.23549 0.9099409 -0.4121552 0.04621401 0.050580 0.069672
25.50085 89.56961 -55.24763 -0.4478328 -0.8941143 0.002331625 0.050580 0.930740
-33.53451 73.42328 -59.41367 0.7037869 0.7103843 0.006189557 0.030261 0.069672
27.2017 90.03904 -38.20737 0.278392 -0.7009174 0.6566678 0.458795 0.992471
-35.48975 90.59863 55.68982 -0.7073492 -0.03437777 0.7060279 0.997835 0.007940
-35.1556 89.6258 -39.58336 0.080893 -0.948181 -0.3072609 0.006348 0.041905
26.59028 72.37287 13.74132 -0.001930812 0.7076263 0.7065843 0.753932 0.992471
-34.88961 72.37287 55.40364 -0.0153813 0.9998078 -0.0121514 0.908356 0.007940
26.91191 72.37629 -30.84145 0.1714877 0.8554853 0.4886072 0.006348 0.958506
25.46522 73.42817 -59.58487 -0.7067758 0.7074323 0.002732748 0.049644 0.958510
-35.15581 72.37287 13.75523 -0.5789753 0.5693159 0.5836669 0.753932 0.015880
-31.94585 0.482546 0.009503742 0.8054309 0.4278042 0.4102008 0.659190 0.063518
-32.91485 15.82446 -50.92282 -0.3418224 -0.7327616 -0.5884028 0.049644 0.007940
-31.87345 0.4854255 -48.65605 0.2370312 0.9701045 0.05209167 0.285609 0.104541
-5.618494 0.4829814 -12.41065 0.3986493 0.8607557 0.3165095 0.285609 0.443304
-31.86155 15.66993 -28.85236 0.3426064 -0.9045699 -0.2537207 0.274785 0.310975
-7.382817 15.67043 -12.01224 0.4147824 -0.5970254 0.6866704 0.421993 0.063518
4.730084 15.66768 -28.1654 -0.05367406 -0.9985318 0.00729988 0.274785 0.651061
5.047392 0.4822941 -28.471 0.186466 0.9815867 0.0414498 0.274785 0.651061
0.4954846 15.67043 -1.31994e-05 0.8188139 -0.5688921 0.07684765 0.521575 0.651061
-31.94585 0.4822941 -4.657096 0.6029512 0.7926866 -0.08998877 0.512915 0.063518
4.505671 0.4822941 -1.012557 -0.648845 0.6759923 -0.3493344 0.512916 0.635182
4.505671 15.67043 -1.012557 -0.3217328 -0.6311479 -0.7057906 0.512916 0.635182
-31.94585 15.67043 -1.012562 0.3759918 -0.9234887 -0.07615036 0.512915 0.063518
-1.951167 0.4834673 39.87855 0.01009631 0.9288419 -0.3703385 0.815990 0.524025
-2.582124 15.05241 52.14592 -0.6002377 -0.1748407 -0.7804777 0.967528 0.524025
-1.569585 15.05164 52.14007 0.6273546 -0.1977102 -0.7532178 0.967528 0.539904
-2.582119 15.67043 -2.025084e-05 -0.6640413 -0.6709557 0.3299509 0.521575 0.524025
2.571444 0.4822941 -1.374152e-05 0.5155008 0.8553312 0.05164627 0.521575 0.539904
-2.582119 0.4822941 0.01816352 -0.3320919 0.664655 0.6692897 0.521575 0.524025
-31.94585 15.67043 -2.025084e-05 0.4058073 -0.4052435 0.8192058 0.521575 0.063518
-32.76165 6.428706 -49.23711 -0.8426763 0.3757478 0.3856296 0.092940 0.047639
23.93956 6.20982 -50.1298 -0.5402983 0.6169266 0.5722582 0.084281 0.815776
2.6064 6.316898 -60.98856 0.003895081 0.99999 0.00220864 0.000000 0.184636
-32.86697 15.6904 52.84576 -0.02572898 -0.9996648 0.002885246 0.976187 0.047639
-33.02845 0.4749761 53.16426 -0.4461307 0.005959462 0.8949479 0.976187 0.047639
24.57467 15.6899 53.0241 0.0289513 -0.8941942 0.4467421 0.976187 0.952772
24.59467 15.73577 -47.85009 -0.2430231 -0.9699014 0.01519645 0.092941 0.952772
24.23141 0.4923892 -28.86086 -0.3218649 0.9467847 -0.001332092 0.299464 0.936893
-31.94585 0.4822941 52.14592 0.2052318 0.824455 -0.5274028 0.967528 0.063518
24.27475 0.4908727 52.74914 -0.2230337 0.9381254 -0.264909 0.976187 0.952772
23.73392 0.5117399 -49.1083 -0.5288987 0.6383842 0.5592244 0.101600 0.936893
-35.01877 90.63676 -38.22665 -0.9324966 0.1183034 0.3412542 0.274785 0.007940
0.7545281 90.59591 -2.531331 0.5360298 0.748706 0.3900147 0.499927 0.023819
1.288528 105.7868 -2.531361 0.6997494 -0.5054367 0.5048609 0.499927 0.023819
-34.47721 105.7868 -9.426328 0.1315249 -0.1703437 0.9765676 0.491267 0.023819
-3.826117 105.7855 -7.037481 0.1232399 -0.1641293 -0.9787101 0.491267 0.579603
-1.063331 90.59866 -9.426337 -0.6105149 0.7766798 0.1550487 0.491267 0.579603
-34.47721 90.59864 -4.695732 0.06925458 0.1275 -0.9894178 0.421993 0.023819
27.07802 107.9401 55.53386 0.3140261 -0.2842369 0.9058681 0.997835 0.992471
-5.623302 90.59863 -38.93078 0.2787095 0.9517943 0.1280962 0.188193 0.393019
-33.66651 91.61067 -39.99571 0.5739838 0.5574147 -0.5998595 0.179533 0.393019
25.51591 91.61121 -39.99543 -0.5742186 0.5824198 -0.5753784 0.179533 0.964682
-33.7178 107.8118 -39.99543 0.5824605 -0.5740365 -0.5755188 0.179533 0.035729
25.29608 108.0293 -39.54059 -0.6876743 -0.6427687 -0.3375682 0.188193 0.567694
-33.71837 110.457 -38.98243 0.6510463 -0.01377614 0.758913 0.188193 0.035729
3.123929 105.8285 -28.52577 -0.3749294 -0.9253449 -0.05625629 0.274785 0.766188
-4.100947 107.8118 54.67728 0.589407 -0.571166 -0.571287 0.989176 0.500206
-4.100947 90.59863 54.67728 0.5876603 0.5722985 -0.5719526 0.989176 0.500206
-4.091347 90.59904 13.66932 0.5791782 0.5768795 0.5759884 0.638475 0.500206
-34.47721 105.7868 12.65677 0.3678904 -0.9268409 -0.07498349 0.629816 0.492266
-4.100947 107.8118 13.66932 0.5814533 -0.5751306 0.5754449 0.638475 0.500206
27.22062 107.9285 13.45972 0.7762932 -0.5565566 0.2959959 0.638475 0.976592
-35.30894 107.8305 13.72422 -0.5697948 -0.5973447 0.5643698 0.753932 0.007940
26.94277 90.59863 55.51087 0.02338926 0.894335 -0.4467864 0.908356 0.976592
-5.115892 90.59905 13.66931 -0.5762566 0.578171 0.5776215 0.638475 0.404928
-5.11349 107.8118 13.66932 -0.5769156 -0.5775278 0.5776071 0.638475 0.484326
-33.88515 90.70436 12.65132 0.6151661 0.7776749 -0.1295859 0.629816 0.404928
-5.113495 90.59863 54.67728 -0.5866931 0.5727264 -0.5725168 0.989176 0.484326
-5.113495 107.8118 54.67728 -0.578164 -0.5830218 -0.5707995 0.989176 0.484326
-34.47722 107.8118 54.67728 0.5607015 -0.5985552 -0.5721411 0.989176 0.023819
3.480947 90.59563 -28.63566 0.7327588 0.6597145 -0.1668576 0.287774 0.766188
26.27532 90.60312 12.62861 -0.534003 0.8018675 -0.2680474 0.629816 0.976592
26.27532 105.7868 12.65677 -0.2678261 -0.8013294 -0.5349209 0.629816 0.976592
25.29534 107.9241 -59.48049 0.2983739 -0.5595029 -0.773259 0.050580 0.930740
-35.31608 91.4796 -59.7114 -0.1458802 0.8172054 -0.5575789 0.030261 0.069672
26.27532 90.59863 -27.33865 -0.4468246 0.3959281 0.8022399 0.458795 0.976592
26.27532 105.7711 -27.24685 -0.8234752 -0.402614 0.399738 0.458795 0.976592
27.01483 90.60735 13.51177 0.6182991 0.6980698 0.3611162 0.319015 0.992471
-35.48975 108.8244 55.68982 -0.8324347 -0.003519086 0.554112 0.997835 0.007940
27.14651 90.59878 -39.18668 0.9406002 0.2578632 0.2208572 0.006348 0.992471
-33.64396 107.8755 -57.18116 0.6986476 -0.6038907 -0.3836766 0.006348 0.041905
-34.88961 90.59863 55.40363 -0.01265228 0.9998469 -0.01208799 0.908356 0.007940
23.34814 118.853 -26.31915 0.1188094 0.9355913 -0.3324954 0.296493 0.930685
-31.55003 118.8529 -26.31915 -0.1999393 0.9336269 -0.2972628 0.296493 0.069726
-31.55003 118.8495 53.15152 -0.2263817 0.9640293 0.1392802 0.976128 0.069726
27.00381 116.4426 -28.94143 0.8394943 0.101625 -0.5337805 0.296493 0.930685
-35.21032 116.5747 -28.11264 -0.6031451 0.6306211 -0.4883983 0.274785 0.007940
-35.46807 116.535 -38.7878 -0.9524686 0.3046366 0.0002836035 0.188193 0.007940
27.28786 116.5747 -60.24626 0.8066659 0.2996479 -0.5094128 0.006348 0.992471
26.6564 118.8306 55.15914 0.6228561 0.6706072 0.4029096 0.997835 0.992471
26.04147 116.3458 -38.92225 0.5994371 0.6784833 -0.4246595 0.188193 0.992471
-35.48975 116.5747 55.68982 -0.4362251 0.4789984 0.7617533 0.997835 0.007940
-35.48975 116.5747 -60.24626 -0.06302728 0.5362285 -0.8417164 0.006348 0.007940
-35.4847 108.9198 -28.78768 -0.7409027 0.1792299 -0.6472555 0.274785 0.027789
-35.15581 90.59863 13.75523 -0.5781097 0.5756882 0.5782493 0.753932 0.015880
3 7 6 3 
3 7 3 4 
3 2 1 14 
3 2 14 31 
3 4 3 14 
3 3 5 10 
3 31 10 40 
3 5 6 7 
3 4 5 7 
3 14 10 5 
3 14 5 4 
3 6 5 3 
3 31 14 10 
3 40 10 0 
3 42 23 8 
3 42 8 30 
3 37 43 9 
3 43 10 14 
3 11 36 34 
3 11 34 40 
3 44 12 13 
3 44 13 35 
3 12 11 40 
3 12 40 13 
3 10 43 37 
3 10 37 40 
3 0 10 40 
3 35 13 40 
3 40 34 35 
3 14 37 43 
3 31 40 37 
3 31 37 14 
3 17 15 16 
3 17 16 18 
3 19 18 16 
3 27 32 1 
3 33 20 2 
3 33 27 20 
3 27 33 32 
3 19 41 22 
3 21 19 22 
3 17 18 19 
3 17 19 21 
3 16 41 19 
3 15 22 41 
3 15 41 16 
3 22 17 21 
3 22 15 17 
3 24 26 30 
3 30 26 29 
3 30 45 24 
3 42 25 45 
3 29 26 25 
3 29 25 28 
3 26 24 25 
3 25 24 45 
3 25 42 28 
3 29 28 42 
3 29 42 30 
3 31 33 2 
3 32 14 1 
3 31 14 38 
3 31 38 39 
3 32 38 14 
3 39 33 31 
3 39 32 33 
3 38 32 39 
3 37 22 43 
3 27 1 2 
3 20 27 2 
3 11 44 36 
3 44 11 12 
3 22 23 41 
3 3 10 14 
3 40 10 11 
3 40 11 10 
3 23 22 8 
3 43 22 41 
3 45 40 0 
3 30 40 45 
3 53 52 49 
3 53 49 50 
3 48 47 60 
3 48 60 77 
3 50 49 60 
3 49 51 55 
3 51 52 53 
3 50 51 53 
3 60 55 51 
3 60 51 50 
3 52 51 49 
3 77 60 55 
3 77 55 46 
3 89 69 54 
3 89 54 76 
3 46 86 77 
3 90 55 60 
3 56 82 80 
3 56 80 87 
3 91 57 58 
3 91 58 81 
3 57 56 87 
3 57 87 58 
3 55 90 59 
3 55 59 87 
3 46 55 87 
3 87 59 77 
3 81 58 87 
3 87 80 81 
3 60 59 90 
3 77 59 60 
3 63 61 62 
3 63 62 64 
3 65 64 62 
3 73 78 47 
3 79 66 48 
3 79 73 66 
3 73 79 78 
3 65 88 68 
3 67 65 68 
3 63 64 65 
3 63 65 67 
3 62 88 65 
3 61 68 88 
3 61 88 62 
3 68 63 67 
3 68 61 63 
3 70 72 76 
3 76 72 75 
3 76 86 70 
3 89 71 86 
3 75 72 71 
3 75 71 74 
3 72 70 71 
3 71 70 86 
3 71 89 74 
3 75 74 89 
3 75 89 76 
3 77 79 48 
3 78 60 47 
3 77 60 84 
3 77 84 85 
3 78 84 60 
3 85 79 77 
3 85 78 79 
3 84 78 85 
3 83 68 90 
3 73 47 48 
3 66 73 48 
3 56 91 82 
3 91 56 57 
3 68 69 88 
3 49 55 60 
3 87 55 56 
3 87 56 55 
3 69 68 54 
3 90 68 88 
3 99 98 95 
3 99 95 96 
3 94 93 106 
3 94 106 101 
3 96 95 106 
3 95 97 100 
3 97 98 99 
3 96 97 99 
3 106 100 97 
3 106 97 96 
3 98 97 95 
3 101 106 100 
3 130 113 102 
3 130 102 128 
3 132 100 106 
3 103 123 131 
3 103 131 129 
3 133 104 105 
3 133 105 122 
3 104 103 129 
3 104 129 105 
3 100 132 124 
3 100 124 129 
3 92 100 129 
3 122 105 129 
3 129 131 122 
3 129 101 92 
3 124 101 129 
3 106 124 132 
3 101 124 106 
3 108 102 113 
3 108 113 109 
3 110 109 113 
3 116 126 93 
3 125 111 94 
3 125 116 111 
3 116 125 126 
3 110 107 127 
3 112 110 127 
3 108 109 110 
3 108 110 112 
3 113 107 110 
3 127 107 113 
3 127 102 108 
3 127 108 112 
3 114 119 120 
3 114 115 119 
3 120 130 114 
3 130 117 135 
3 119 115 117 
3 119 117 118 
3 115 114 117 
3 117 114 135 
3 117 130 118 
3 119 118 130 
3 119 130 120 
3 121 94 101 
3 106 121 101 
3 121 125 94 
3 126 106 93 
3 121 106 132 
3 126 132 106 
3 132 126 125 
3 125 121 132 
3 124 127 132 
3 92 114 129 
3 116 93 94 
3 111 116 94 
3 103 133 123 
3 133 103 104 
3 95 100 106 
3 129 100 103 
3 129 103 100 
3 130 128 114 
3 133 131 123 
3 135 114 92 
3 133 134 131 
3 142 140 141 
3 139 138 147 
3 139 147 143 
3 141 140 143 
3 141 143 147 
3 144 140 145 
3 141 144 145 
3 141 145 142 
3 147 144 141 
3 142 145 140 
3 144 143 140 
3 143 144 137 
3 177 159 146 
3 177 146 174 
3 148 172 170 
3 148 170 175 
3 179 149 150 
3 179 150 171 
3 149 148 175 
3 149 175 150 
3 147 178 173 
3 147 173 175 
3 137 147 175 
3 171 150 175 
3 175 170 171 
3 175 143 137 
3 144 147 137 
3 173 143 175 
3 143 173 178 
3 153 151 152 
3 153 152 154 
3 155 154 152 
3 162 168 138 
3 169 156 139 
3 169 162 156 
3 162 169 168 
3 155 176 158 
3 157 155 158 
3 153 154 155 
3 153 155 157 
3 152 176 155 
3 151 158 176 
3 151 176 152 
3 158 153 157 
3 158 151 153 
3 160 165 166 
3 160 161 165 
3 166 177 160 
3 177 163 180 
3 165 161 163 
3 165 163 164 
3 161 160 163 
3 163 160 180 
3 163 177 164 
3 165 164 177 
3 165 177 166 
3 167 139 143 
3 178 167 143 
3 167 169 139 
3 178 147 138 
3 168 178 138 
3 167 168 169 
3 178 168 167 
3 173 158 178 
3 137 160 175 
3 162 138 139 
3 156 162 139 
3 148 179 172 
3 179 148 149 
3 158 159 176 
3 175 147 148 
3 175 148 147 
3 159 158 146 
3 177 174 160 
3 178 158 176 
3 180 160 137 
3 204 201 205 
3 182 201 204 
3 200 204 181 
3 209 181 204 
3 184 187 186 
3 208 202 207 
3 207 187 185 
3 207 185 182 
3 189 187 207 
3 206 189 207 
3 206 196 189 
3 183 184 188 
3 183 188 211 
3 188 208 211 
3 193 186 192 
3 192 186 187 
3 188 184 191 
3 191 184 190 
3 193 190 186 
3 184 186 190 
3 194 210 198 
3 210 208 198 
3 198 208 188 
3 210 194 196 
3 187 184 185 
3 183 182 185 
3 191 192 187 
3 191 187 188 
3 189 198 188 
3 189 188 187 
3 190 193 192 
3 190 192 191 
3 189 196 194 
3 189 194 198 
3 204 200 197 
3 204 197 195 
3 197 194 195 
3 194 197 199 
3 209 194 199 
3 209 199 181 
3 209 195 194 
3 210 196 206 
3 209 204 195 
3 200 181 199 
3 200 199 197 
3 183 201 182 
3 183 211 201 
3 202 201 211 
3 207 202 211 
3 201 202 203 
3 211 208 207 
3 205 210 206 
3 205 206 204 
3 208 210 202 
3 218 215 216 
3 218 216 217 
3 214 213 241 
3 214 241 226 
3 217 216 226 
3 217 226 241 
3 226 216 212 
3 220 216 217 
3 217 216 215 
3 217 215 218 
3 241 220 217 
3 220 212 216 
3 252 234 219 
3 252 219 249 
3 248 241 232 
3 212 258 245 
3 241 226 261 
3 212 225 264 
3 241 250 220 
3 221 223 224 
3 221 245 251 
3 221 251 223 
3 136 222 224 
3 136 224 244 
3 222 221 224 
3 220 250 261 
3 220 261 224 
3 212 220 224 
3 212 224 225 
3 224 223 251 
3 224 251 244 
3 226 212 264 
3 229 228 234 
3 237 242 213 
3 243 230 214 
3 243 237 230 
3 237 243 242 
3 229 248 232 
3 231 229 232 
3 227 228 229 
3 227 229 231 
3 252 249 233 
3 234 248 229 
3 232 219 227 
3 232 227 231 
3 233 239 240 
3 233 236 239 
3 240 252 233 
3 252 235 265 
3 239 236 235 
3 239 235 238 
3 236 233 235 
3 235 233 265 
3 235 252 238 
3 226 243 214 
3 242 241 213 
3 226 241 246 
3 226 246 247 
3 242 246 241 
3 247 243 226 
3 247 242 243 
3 246 242 247 
3 265 233 212 
3 212 233 264 
3 237 213 214 
3 230 237 214 
3 221 136 245 
3 136 221 222 
3 250 136 244 
3 245 263 251 
3 224 220 221 
3 224 221 220 
3 245 258 263 
3 250 244 259 
3 244 251 263 
3 244 263 259 
3 262 260 255 
3 262 255 257 
3 255 260 253 
3 255 253 254 
3 255 254 257 
3 256 253 260 
3 257 254 253 
3 257 253 256 
3 263 258 261 
3 263 261 259 
3 256 264 257 
3 249 262 257 
3 249 257 264 
3 232 256 260 
3 232 260 219 
3 219 260 262 
3 219 262 249 
3 250 259 261 
3 241 261 256 
3 241 256 232 
3 264 258 212 
3 227 219 234 
3 227 234 228 
3 239 238 252 
3 239 252 240 
