ply
format ascii 1.0
comment VCGLIB generated
element vertex 136
property float x
property float y
property float z
property float nx
property float ny
property float nz
property float texture_u
property float texture_v
element face 245
property list uchar int vertex_indices
end_header
1.085686 25.45769 -3.642262 0.3836986 0.7731354 0.505012 0.499927 0.023819
-49.60841 47.31551 -3.642305 0.6078227 -0.1301735 0.7833303 0.499927 0.023819
1.383857 47.31551 -5.099227 -0.379247 -0.5989585 -0.7052804 0.491267 0.579603
-1.52999 25.46168 -13.56331 -0.3288735 0.9012438 0.282138 0.491267 0.579603
-8.103211 47.30128 -19.50596 0.5858653 -0.8104066 -0.001771505 0.421993 0.476386
-49.60842 47.31551 -9.746221 0.3627866 -0.5565367 0.7474308 0.421993 0.023819
-49.60842 25.46167 -6.756563 0.09865253 0.3718824 -0.9230228 0.421993 0.023819
-50.85875 25.51322 -55.61948 -0.8093706 0.02058311 0.5869374 0.274785 0.104540
39.26382 51.68628 80.13072 0.4460932 -0.004899283 0.8949731 0.997835 0.992471
39.26036 51.68605 -81.65372 0.9993522 0.02386012 0.0269435 0.189818 0.964682
2.441022 25.4671 -40.97638 0.08878499 0.960813 -0.2625942 0.274785 0.766188
-8.101418 25.46167 -55.9199 0.2122958 0.6481426 0.7313287 0.188193 0.567694
-48.44192 26.91782 -57.54884 0.6506643 0.7006209 -0.2928589 0.179533 0.393019
36.71423 26.9186 -57.54844 -0.4092824 0.420876 -0.8095377 0.179533 0.964682
36.71423 50.22935 -57.54844 -0.8185741 -0.4096596 -0.4026358 0.179533 0.964682
-50.96276 50.33555 -56.63338 -0.1076991 -0.9709833 -0.213524 0.179533 0.567694
2.84078 47.31551 -3.642305 0.5281554 -0.8063447 0.2661956 0.499927 0.595483
37.80691 50.22923 78.6738 -0.8163006 -0.3973812 -0.4192153 0.989176 0.976592
37.80691 25.46167 78.6738 -0.3327518 0.6655322 -0.6680892 0.989176 0.976592
-5.900753 50.22923 78.6738 0.5774618 -0.577215 -0.577374 0.989176 0.500206
-5.900753 25.46167 78.6738 0.5773972 0.5773972 -0.5772563 0.989176 0.500206
-5.88694 25.46226 19.66846 0.5762895 0.5767233 0.5790342 0.638475 0.500206
-49.60842 47.31551 18.21153 0.4134248 -0.8111082 -0.413743 0.629816 0.492266
-5.900753 50.22923 19.66846 0.5748864 -0.578425 0.5787315 0.638475 0.500206
38.91716 50.24255 19.98064 0.7279768 -0.4911736 0.4783285 0.638475 0.976592
39.26382 25.46167 80.12936 0.8979093 -0.01188863 0.44002 0.908356 0.992471
-49.60843 50.22923 19.66844 0.4034587 -0.4165338 0.8146905 0.638475 0.023819
-7.361133 25.46228 19.66844 -0.5763143 0.5785835 0.5771507 0.638475 0.404928
-7.357676 50.22923 19.66846 -0.4105937 -0.8146038 0.4096749 0.638475 0.484326
-48.75653 25.61379 18.20369 0.5105119 0.6798965 -0.5264202 0.629816 0.404928
-7.357683 25.46167 78.6738 -0.5866933 0.5727264 -0.5725167 0.989176 0.484326
-7.357683 50.22923 78.6738 -0.6789313 -0.3257008 -0.6580056 0.989176 0.484326
-50.64883 50.57501 79.99118 -0.01983289 -0.999723 0.01266969 0.989176 0.023819
1.737731 47.31453 -39.61315 -0.2878093 -0.9483241 0.1335935 0.287774 0.766188
37.80691 25.46812 18.17101 -0.5339906 0.8018968 -0.2679845 0.629816 0.976592
37.80691 47.31551 18.21153 -0.2676513 -0.8015634 -0.5346577 0.629816 0.976592
-48.50754 50.21544 -79.47699 0.9086161 -0.4148203 0.04838296 0.050580 0.069672
36.71365 26.93416 -85.03661 -0.7072678 0.6171067 0.3448936 0.030261 0.930740
-48.51482 26.92642 -85.03883 0.4441926 0.2320047 0.8653709 0.030261 0.069672
38.5771 50.34931 -55.12732 0.8087409 -0.5867233 -0.04115719 0.458795 0.992471
37.80691 25.46167 -39.33691 -0.43275 0.3807203 0.8171778 0.458795 0.976592
37.80691 47.29295 -39.20483 -0.8172484 -0.4086594 0.4063282 0.458795 0.976592
38.2601 25.46167 19.77206 -0.001953047 0.7062279 0.7079819 0.753932 0.992471
-50.20181 25.46167 79.71894 -0.03036474 0.9995388 0.0003752442 0.908356 0.007940
36.592 50.12639 -79.09453 -0.4613741 -0.8871103 0.01300676 0.022489 0.069672
39.02407 25.46191 -49.66636 0.933799 0.3573354 0.01818816 0.006348 0.958506
36.14817 27.17995 -86.35339 -0.01888195 0.3018861 -0.953157 0.049644 0.958510
-47.95013 26.82678 -84.79926 -0.007140401 0.26218 -0.9649926 0.006348 0.041905
-50.58484 25.46167 19.79207 -0.5808352 0.5548899 0.5955902 0.753932 0.015880
-45.9661 0.6943237 0.01367457 0.8054309 0.427804 0.4102009 0.659190 0.063518
-47.45368 24.01379 -74.12191 -0.009860125 -0.9871408 -0.1595487 0.049644 0.007940
-45.80986 22.54399 -55.41225 0.6051547 -0.7477149 -0.2733318 0.274785 0.310975
-10.62296 22.54779 -17.28412 0.4147824 -0.5970254 0.6866704 0.421993 0.063518
-8.084315 0.6949501 -17.85738 0.4485718 0.8287961 0.3344852 0.274785 0.456537
6.806003 22.54383 -40.5265 -0.009063687 -0.9996212 0.02598548 0.274785 0.651061
7.262569 0.6939612 -40.96623 0.1861615 0.9816507 0.04130063 0.274785 0.651061
0.7129393 22.54779 -1.942012e-05 0.8189701 -0.5686514 0.07696513 0.521575 0.651061
-45.9661 0.6939612 -6.700983 0.6029512 0.7926865 -0.08998885 0.512915 0.063518
6.483099 0.6939612 -1.456944 -0.648845 0.6759923 -0.3493344 0.512916 0.635182
6.483099 22.54779 -1.456944 -0.3217328 -0.6311479 -0.7057906 0.512916 0.635182
-45.9661 22.54779 -1.456951 0.3759918 -0.9234887 -0.07615035 0.512915 0.063518
-2.807487 0.6956493 57.38027 0.01113123 0.9288935 -0.3701797 0.815990 0.524025
-3.715355 21.65854 75.03149 -0.6002377 -0.1748405 -0.7804777 0.967528 0.524025
-2.258437 21.65743 75.02307 0.6295069 -0.2022307 -0.7502159 0.967528 0.539904
-3.715348 22.54779 -2.913844e-05 -0.6640413 -0.6709557 0.3299509 0.521575 0.524025
3.699986 0.6939612 -2.003955e-05 0.5152405 0.8554853 0.05169258 0.521575 0.539904
-3.715348 0.6939612 0.02613503 -0.3320919 0.664655 0.6692897 0.521575 0.524025
-45.9661 22.54779 -2.913844e-05 0.4058073 -0.4052436 0.8192058 0.521575 0.063518
-47.13994 9.250109 -70.84607 0.007925487 0.6713561 0.7410926 0.092940 0.047639
34.44604 8.935152 -72.13053 -0.551015 0.6113434 0.5680156 0.084281 0.815776
3.75029 9.08923 -87.75494 0.003895162 0.99999 0.002208792 0.000000 0.184636
-47.29147 22.57652 76.03848 -0.02661844 -0.9996409 0.003106046 0.976187 0.047639
-47.52383 0.6834314 76.49677 -0.4484329 0.01062841 0.8937533 0.976187 0.047639
35.92033 22.66989 76.45227 0.02915071 -0.8940352 0.4470473 0.906047 0.936893
35.57253 22.62692 -63.3279 -0.2444642 -0.9696358 -0.006606451 0.209841 0.936893
35.14082 0.7330503 -41.42073 -0.3247212 0.9458093 -0.0009712835 0.209841 0.936893
-45.77404 0.7020973 -68.67171 0.3731837 0.8798442 0.2942923 0.101600 0.063518
-45.96611 0.6939612 75.03149 0.2052318 0.824455 -0.5274028 0.967528 0.063518
35.27271 0.7056115 76.28271 -0.2240826 0.9371827 -0.2673494 0.967528 0.936893
34.15634 0.73633 -70.66073 -0.5160425 0.6657341 0.538979 0.101600 0.936893
1.085688 51.68231 -3.64227 0.3837086 0.7731122 0.5050398 0.499927 0.023819
-49.60841 73.54012 -3.642313 0.6078228 -0.1301734 0.7833303 0.499927 0.023819
1.383857 73.54012 -5.359919 -0.5659301 -0.7562097 -0.3284358 0.491267 0.579603
0.436857 51.6863 -9.74622 0.0555388 0.9610516 0.270731 0.421993 0.476386
-8.08519 73.53734 -17.46152 0.2835886 -0.5896725 0.7562168 0.421993 0.476386
-49.60841 73.54012 -9.746224 0.2740217 -0.5381451 0.7970645 0.421993 0.023819
-49.60841 51.6863 -6.756569 0.08554346 0.1990973 -0.976239 0.421993 0.023819
-9.269038 51.93605 -41.47959 -0.7293822 -0.2568803 -0.6340459 0.285610 0.104540
38.9619 76.6385 79.90632 0.3139847 -0.2902506 0.9039736 0.997835 0.992471
36.76299 80.25929 -52.41446 -0.3726389 -0.03027126 0.9274825 0.189818 0.964682
-48.24158 53.04842 -56.8306 0.0624262 0.9980383 0.00476208 0.188193 0.035729
36.71423 53.14322 -57.54844 -0.402789 0.4003608 -0.823087 0.179533 0.964682
-47.76807 77.32194 -56.53086 0.3998284 -0.6573966 -0.6387228 0.179533 0.393019
36.71423 76.45396 -57.54844 -0.7940864 -0.4364962 -0.4229631 0.179533 0.964682
1.657026 73.68272 -40.94943 0.2981167 -0.5971235 -0.7446945 0.274785 0.766188
2.84078 73.54012 -3.642313 0.5288274 -0.8062969 0.2650037 0.499927 0.595483
-5.900753 76.45389 78.6738 0.589407 -0.5711659 -0.571287 0.989176 0.500206
-5.900753 51.6863 78.6738 0.5876603 0.5722985 -0.5719526 0.989176 0.500206
-5.88694 51.68689 19.66845 0.5791782 0.5768795 0.5759884 0.638475 0.500206
-49.60842 73.54012 18.21152 0.4134248 -0.8111083 -0.413743 0.629816 0.492266
-5.900753 76.45389 19.66845 0.5814534 -0.5751306 0.5754448 0.638475 0.500206
39.16709 76.62186 19.36685 0.8195994 -0.4028378 0.4074046 0.638475 0.976592
38.76729 51.6863 79.87324 0.02338941 0.8943349 -0.4467864 0.908356 0.976592
-7.361133 51.68691 19.66843 -0.5866572 0.5657933 0.579406 0.638475 0.404928
-7.357676 76.45389 19.66845 -0.5773559 -0.5773075 0.5773875 0.638475 0.484326
-48.75653 51.83842 18.20368 0.5105118 0.6798966 -0.5264204 0.629816 0.404928
-7.357683 51.6863 78.6738 -0.5866932 0.5727265 -0.5725168 0.989176 0.484326
-7.357683 76.45389 78.6738 -0.5782885 -0.5828502 -0.5708486 0.989176 0.484326
-49.60843 76.45389 78.6738 0.5606333 -0.5984694 -0.5722977 0.989176 0.023819
2.431673 51.6863 -40.43827 0.1887807 0.9767978 -0.1011326 0.287774 0.766188
37.80691 51.69275 18.171 -0.5339989 0.8018804 -0.2680168 0.629816 0.976592
37.80691 73.54012 18.21152 -0.2678818 -0.8010237 -0.5353508 0.629816 0.976592
36.39686 76.61556 -85.58499 -0.3303443 -0.6286011 -0.7040832 0.050580 0.930740
38.92872 53.02703 -86.00635 -0.1371162 0.8676288 -0.4779326 0.030261 0.930740
-50.81543 52.95385 -85.91727 -0.1534022 0.8302668 -0.5358403 0.030261 0.069672
37.80691 51.6863 -39.33691 -0.4338471 0.4084209 0.8030997 0.458795 0.976592
37.80691 73.51756 -39.20482 -0.8228019 -0.4032336 0.4004993 0.458795 0.976592
38.87097 51.69883 19.44176 0.5809758 0.5730743 0.5779731 0.319015 0.992471
-51.06534 77.91087 80.13072 -0.8324709 -0.02268397 0.5536042 0.997835 0.007940
38.82561 51.68783 -49.60683 0.9378849 0.253293 -0.2370961 0.188193 0.992471
-48.40946 76.5456 -82.2765 0.7977198 -0.4122445 -0.440111 0.006348 0.041905
-50.20181 51.6863 79.71893 -0.01245158 0.9998509 -0.0119652 0.908356 0.007940
33.59507 92.34068 -37.86997 0.1210048 0.9460249 -0.3006574 0.296493 0.930685
-45.39656 92.34068 -37.86997 -0.1952287 0.9474877 -0.2532844 0.296493 0.069726
33.59507 92.34068 76.47843 0.3003575 0.9307783 0.2084154 0.976128 0.930685
-45.39656 92.33563 76.47844 -0.1896911 0.9460242 0.2627841 0.976128 0.069726
38.85517 88.87254 -41.64313 0.8501378 0.5083237 -0.1373775 0.296493 0.930685
-50.95314 88.86553 -41.53523 -0.9265749 0.3559031 -0.1216214 0.296493 0.069726
39.26384 89.06267 -86.68687 0.3106262 0.3940459 -0.8650082 0.006348 0.992471
38.86177 89.06267 79.36722 0.6034982 0.552215 0.5751944 0.997835 0.992471
-51.06534 89.06267 80.13072 -0.4276822 0.4752202 0.7689303 0.997835 0.007940
-51.06533 89.06267 -86.68687 -0.0638742 0.5342523 -0.8429083 0.006348 0.007940
-50.78361 76.52555 19.74256 -0.626981 -0.7130598 0.3137523 0.274785 0.007940
39.21276 89.05537 -55.93797 0.8352214 0.5498512 0.008288234 0.188193 0.972622
-51.05743 89.0481 -55.90889 -0.9626912 0.2688651 0.03061666 0.188193 0.027789
-50.98086 51.70271 18.53745 -0.6185579 0.7206278 0.3131802 0.753932 0.015880
3 6 5 2 
3 6 2 3 
3 1 0 16 
3 16 0 10 
3 16 10 33 
3 3 2 33 
3 3 33 10 
3 11 4 3 
3 3 4 5 
3 3 5 6 
3 10 11 3 
3 2 4 33 
3 5 4 2 
3 43 25 8 
3 43 8 32 
3 39 45 9 
3 45 11 10 
3 12 38 36 
3 12 36 15 
3 37 13 14 
3 37 14 44 
3 13 12 15 
3 13 15 14 
3 11 45 39 
3 11 39 15 
3 7 11 15 
3 44 14 15 
3 15 36 44 
3 7 15 4 
3 33 4 15 
3 10 39 45 
3 33 15 39 
3 33 39 10 
3 19 17 18 
3 19 18 20 
3 21 20 18 
3 29 34 0 
3 35 22 16 
3 22 1 16 
3 35 29 22 
3 29 35 34 
3 21 42 24 
3 23 21 24 
3 19 20 21 
3 19 21 23 
3 18 42 21 
3 17 24 42 
3 17 42 18 
3 24 19 23 
3 24 17 19 
3 26 28 32 
3 32 28 31 
3 32 48 26 
3 43 27 48 
3 31 28 27 
3 31 27 30 
3 28 26 27 
3 27 26 48 
3 27 43 30 
3 31 30 43 
3 31 43 32 
3 33 35 16 
3 34 10 0 
3 33 10 40 
3 33 40 41 
3 34 40 10 
3 41 35 33 
3 41 34 35 
3 40 34 41 
3 39 24 45 
3 29 0 1 
3 22 29 1 
3 12 37 38 
3 37 12 13 
3 24 25 42 
3 15 11 12 
3 15 12 11 
3 47 36 44 
3 25 24 8 
3 37 44 38 
3 36 38 44 
3 45 24 42 
3 48 15 7 
3 32 15 48 
3 46 47 44 
3 71 68 72 
3 50 68 71 
3 67 71 49 
3 77 49 71 
3 53 54 52 
3 75 69 74 
3 75 74 73 
3 75 73 74 
3 74 54 51 
3 56 54 74 
3 73 56 74 
3 73 63 56 
3 76 53 55 
3 76 55 79 
3 55 75 79 
3 60 52 59 
3 59 52 54 
3 55 53 58 
3 58 53 57 
3 60 57 52 
3 53 52 57 
3 61 78 65 
3 78 75 65 
3 65 75 55 
3 78 61 63 
3 54 53 51 
3 58 59 54 
3 58 54 55 
3 56 65 55 
3 56 55 54 
3 57 60 59 
3 57 59 58 
3 56 63 61 
3 56 61 65 
3 71 67 64 
3 71 64 62 
3 64 61 62 
3 61 64 66 
3 77 61 66 
3 77 66 49 
3 77 62 61 
3 78 63 73 
3 77 71 62 
3 67 49 66 
3 67 66 64 
3 76 68 51 
3 76 79 68 
3 69 68 79 
3 74 69 79 
3 50 74 51 
3 68 50 51 
3 68 69 70 
3 79 75 74 
3 72 78 73 
3 72 73 71 
3 75 78 69 
3 86 85 82 
3 86 82 83 
3 81 80 95 
3 95 80 109 
3 95 109 94 
3 83 82 109 
3 82 84 87 
3 87 84 83 
3 83 84 85 
3 83 85 86 
3 109 87 83 
3 85 84 82 
3 94 109 87 
3 121 102 88 
3 121 88 118 
3 117 119 101 
3 90 134 114 
3 135 132 87 
3 90 92 94 
3 90 94 87 
3 119 90 109 
3 90 114 120 
3 90 120 92 
3 113 91 93 
3 113 93 112 
3 91 90 92 
3 91 92 93 
3 90 119 89 
3 90 89 92 
3 112 93 92 
3 92 120 112 
3 109 90 87 
3 94 89 119 
3 109 94 119 
3 98 97 102 
3 105 110 80 
3 111 99 95 
3 99 81 95 
3 111 105 99 
3 105 111 110 
3 98 117 101 
3 100 98 101 
3 96 97 98 
3 96 98 100 
3 121 118 132 
3 102 117 98 
3 101 88 96 
3 101 96 100 
3 132 107 108 
3 132 104 107 
3 108 121 132 
3 121 103 135 
3 107 104 103 
3 107 103 106 
3 104 132 103 
3 103 132 135 
3 103 121 106 
3 94 111 95 
3 110 109 80 
3 94 109 115 
3 94 115 116 
3 110 115 109 
3 116 111 94 
3 116 110 111 
3 115 110 116 
3 105 80 81 
3 99 105 81 
3 90 113 114 
3 113 90 91 
3 114 131 120 
3 82 87 109 
3 114 134 131 
3 113 112 128 
3 112 120 131 
3 112 131 128 
3 130 129 125 
3 130 125 127 
3 125 124 122 
3 125 122 123 
3 125 123 127 
3 126 122 124 
3 126 124 129 
3 127 123 122 
3 127 122 126 
3 129 124 125 
3 131 134 133 
3 131 133 128 
3 118 130 127 
3 118 127 132 
3 101 126 129 
3 101 129 88 
3 88 129 130 
3 88 130 118 
3 113 128 133 
3 113 133 119 
3 119 133 126 
3 119 126 101 
3 127 134 90 
3 127 90 87 
3 87 132 127 
3 96 88 102 
3 96 102 97 
3 107 106 121 
3 107 121 108 
