ply
format ascii 1.0
comment VCGLIB generated
element vertex 4
property float x
property float y
property float z
property float nx
property float ny
property float nz
property float texture_u
property float texture_v
element face 2
property list uchar int vertex_indices
end_header
0 0 0 -0.2304818 1000000 0.0437114 0.000000 0.000000
999.9999 0.0002304818 1.007468e-11 -0.2304818 1000000 0.0437114 0.000000 1.000000
0 -4.371138e-05 999.9998 -0.2304818 1000000 0.0437114 1.000000 0.000000
999.9999 0.0001867705 999.9998 -0.2304818 1000000 0.0437114 1.000000 1.000000
3 3 1 0 
3 0 2 3 
