ply
format ascii 1.0
comment VCGLIB generated
element vertex 283
property float x
property float y
property float z
property float nx
property float ny
property float nz
property float texture_u
property float texture_v
element face 545
property list uchar int vertex_indices
end_header
-60.31705 53.05766 43.8999 -0.6882472 0.2294157 -0.6882472 0.644636 0.267646
-60.31705 106.1153 71.99348 -0.4264014 0.6396021 0.6396021 0.761348 0.267646
-60.31705 106.1153 43.8999 -0.4082483 0.8164966 -0.4082483 0.644636 0.267646
-60.31705 99.4831 -19.41566 -0.863938 -0.4704544 0.1796771 0.332653 0.267646
-60.31705 70.74354 -28.25172 -0.9548854 0.2902234 -0.06296298 0.393834 0.267646
-60.31705 53.05766 -60.65065 -0.6 0 -0.8 0.210291 0.267646
-60.31705 53.05766 12.98332 -0.9054841 -0.2318756 0.3554323 0.516196 0.267646
-60.31705 106.1153 12.98332 -0.6666667 0.3333333 0.6666667 0.516196 0.267646
-60.31705 106.1153 -60.65065 -0.4264014 0.6396021 -0.6396021 0.210291 0.267646
-60.31705 76.49145 -45.92389 -0.8088326 0.3153575 0.496326 0.271472 0.267646
-60.31705 85.11332 -1.743497 -0.971131 0.02112036 -0.2376097 0.455015 0.267646
-57.24379 106.1153 68.97622 0.4850713 0.7276069 -0.4850713 0.748813 0.283197
-57.24379 53.05766 68.97622 0.3333333 -0.6666667 -0.6666667 0.748813 0.283197
-57.24379 53.05766 43.8999 0.6882472 -0.2294157 -0.6882472 0.644636 0.283197
-57.24379 106.1153 43.8999 0.4082483 0.4082483 -0.8164966 0.644636 0.283197
-57.24379 99.4831 -38.56048 0.998622 -0.04217566 0.03123284 0.332653 0.283197
-57.24379 70.74354 -13.52495 0.9953555 0.0962387 -0.002366802 0.455015 0.283197
-57.24379 53.05766 12.98332 0.9202215 0.07966959 0.3832037 0.516196 0.283197
-57.24379 53.05766 -57.65831 0.6 0 0.8 0.222722 0.283197
-57.24379 70.74354 -38.56048 0.9684187 0.225128 0.1071565 0.271472 0.283197
-57.24379 106.1153 -57.65831 0.5773503 0.5773503 0.5773503 0.222722 0.283197
-57.24379 106.1153 12.98332 0.8017837 0.5345225 0.2672612 0.516196 0.283197
-57.24379 99.4831 -9.106904 0.9894897 -0.108481 -0.0956144 0.455015 0.283197
-10.36586 99.4831 71.99348 -0.001862033 -0.3309134 0.9436593 0.761348 0.520401
-21.04841 99.4831 71.99348 -0.2138568 -0.1663747 0.9625927 0.761348 0.466347
-15.70714 70.74354 71.99348 -0.1412135 0.08769406 0.9860874 0.761348 0.466347
72.32709 106.1153 71.99348 0.4574957 0.4574957 0.7624929 0.761348 0.938830
-39.27189 99.4831 71.99348 0.2475935 -0.1150779 0.9620055 0.761348 0.374135
5.47345 85.11332 71.99348 -0.2152343 -0.1171393 0.9695115 0.761348 0.600548
72.32709 53.05766 71.99348 0.2182179 -0.4364358 0.8728715 0.761348 0.938830
-39.27189 70.74354 71.99348 0.1758337 0.0613333 0.9825073 0.761348 0.374135
-17.99625 82.83052 68.97622 -0.1133288 -0.02774552 0.99317 0.748813 0.466347
69.33475 106.1153 68.97622 -0.6396021 0.6396021 -0.4264014 0.748813 0.923688
-0.862274 91.2718 68.97622 -0.4194117 -0.2314915 0.8777844 0.748813 0.600548
69.33475 53.05766 68.97622 -0.6666667 -0.6666667 -0.3333333 0.748813 0.923688
-60.31705 53.05766 71.99348 -0.5883484 -0.1961161 0.7844645 0.748813 0.672556
-39.27189 93.73518 68.97622 0.8688371 -0.4764836 -0.1344825 0.748813 0.374135
1.531874 86.21869 -60.65065 -0.2182179 0.4364358 -0.8728715 0.210291 0.580604
1.531874 99.4831 -60.65065 -0.5345225 -0.2672612 -0.8017837 0.210291 0.580604
40.97643 99.4831 -60.65065 -0.3393297 -0.1716873 -0.9248669 0.210291 0.780194
52.48782 78.95484 -60.65065 0.2815459 0.1439137 -0.9486942 0.210291 0.780194
72.32709 106.1153 -60.65065 0.6396021 0.6396021 -0.4264014 0.210291 0.938830
-42.57948 99.4831 -60.65065 0.2672612 -0.5345225 -0.8017837 0.210291 0.357399
72.32709 53.05766 -60.65065 0.5812382 0 -0.8137335 0.210291 0.938830
-42.57948 86.21869 -60.65065 0.5345225 0.2672612 -0.8017837 0.210291 0.357399
40.97643 99.4831 -57.65831 0.3329806 0.1876022 0.9240829 0.222722 0.780194
1.531874 99.4831 -57.65831 -0.2672612 -0.5345225 0.8017837 0.222722 0.580604
1.531874 86.21869 -57.65831 -0.4364358 0.2182179 0.8728715 0.222722 0.580604
51.93966 77.92843 -57.65831 -0.2761277 -0.1541449 0.9486795 0.222722 0.857858
69.33475 106.1153 -57.65831 -0.7427813 0.5570861 0.3713907 0.222722 0.923688
-42.57948 99.4831 -57.65831 0.5345225 -0.2672612 0.8017837 0.222722 0.357399
-42.57948 86.21869 -57.65831 0.2672612 0.5345225 0.8017837 0.222722 0.357399
69.33475 53.05766 -57.65831 -0.7525767 0 0.6585046 0.222722 0.923688
72.32709 83.5658 -12.12207 -0.9742445 -0.00864463 -0.2253283 0.411898 0.938830
72.32709 99.4831 18.93583 0.8017837 -0.5345225 0.2672612 0.540925 0.938830
72.32709 70.74354 18.93583 0.4082483 0.4082483 0.8164966 0.540925 0.938830
72.32709 99.4831 45.46466 0.8017837 -0.2672612 -0.5345225 0.651136 0.938830
72.32709 95.50378 -29.59274 -0.8940381 0.2118451 0.3947373 0.339318 0.938830
72.32709 70.74354 45.46466 0.8017837 0.5345225 -0.2672612 0.651136 0.938830
69.33475 99.4831 18.93583 -0.8728715 -0.2182179 0.4364358 0.540925 0.923688
69.33475 70.74354 18.93583 -0.8017837 0.5345225 0.2672612 0.540925 0.923688
69.33475 99.4831 45.46466 -0.8017837 -0.5345225 -0.2672612 0.651136 0.923688
69.33475 99.4831 -20.8574 -0.9843103 -0.1087883 -0.1389187 0.339318 0.923688
69.33475 79.58648 -15.6162 -0.9965035 0.08330607 0.006403693 0.339318 0.923688
69.33475 70.74354 45.46466 -0.8017837 0.2672612 -0.5345225 0.651136 0.923688
76.06307 111.0097 78.53455 -0.05445328 -0.4356262 0.898479 0.787611 0.957498
78.88536 110.5716 78.94933 -0.05445328 -0.4356262 0.898479 0.793168 0.974545
-66.67193 110.5716 79.15279 0.5819836 0.410812 -0.7018038 0.793168 0.231931
5.934504 150.855 6.27289 0.6767529 -0.5205792 0.5205792 0.488316 0.613516
-66.64709 110.6309 -66.46348 0 0 1 0.183465 0.231931
-66.25713 111.0097 76.33047 0.4904569 0.1509098 -0.8582996 0.779172 0.238699
79.38541 109.937 79.6528 0.4472135 5.357713e-06 0.8944273 0.793168 0.974545
-67.37537 109.937 79.6528 1.192104e-07 1 1.386286e-07 0.793168 0.231931
-67.37537 106.116 79.6528 -0.4082492 -0.4082442 0.8164982 0.793168 0.231931
79.38541 106.116 79.65285 0.6666684 -0.6666645 0.3333342 0.793168 0.974545
79.38541 109.937 -67.10798 0 1 -1.589476e-07 0.183465 0.974545
79.38541 106.116 -67.10798 0.4082483 -0.4082483 -0.8164966 0.183465 0.974545
-67.37537 109.937 -67.10798 0 1 0 0.183465 0.231931
-67.37537 106.116 -67.10798 -0.6666667 -0.6666667 -0.3333333 0.183465 0.231931
81.97982 109.937 82.24721 0.2739242 0.7906883 0.5475194 0.803946 0.987673
-69.96978 109.937 82.24721 -0.5495799 0.7888643 0.2750546 0.803946 0.218803
81.97982 109.937 -69.70233 0.5469117 0.7912157 -0.2736154 0.172687 0.987673
-69.89207 107.7766 -69.57056 -0.517955 -0.8118963 -0.2693456 0.172686 0.218803
-69.96978 109.937 -69.70233 -0.2747399 0.7894028 -0.5489638 0.172687 0.218803
79.38541 109.937 79.65285 -0.2672611 0.8017837 -0.5345225 0.793168 0.974545
79.38541 107.7355 79.65285 -0.5230554 -0.8112021 -0.2614655 0.793168 0.974545
-67.37543 107.7355 79.6528 0.265116 -0.8084004 -0.5255496 0.793168 0.231931
79.38548 107.7355 -67.10798 -0.2607354 -0.8092875 0.5263751 0.183465 0.974545
-67.37537 107.7355 -67.10798 0.5288458 -0.8064904 0.2643771 0.183465 0.231931
81.91515 107.8193 82.14572 0.5247391 -0.8070256 0.2708475 0.800567 0.983557
81.8783 107.8193 -69.63766 0.2741321 -0.8073478 -0.5225334 0.176065 0.983557
-69.83795 107.7766 82.16952 -0.2660434 -0.8115862 0.5201429 0.803101 0.219832
-64.00648 110.6772 78.31525 0 0.8749466 0.4842195 0.787611 0.248977
76.01653 110.6772 78.31525 0 0.8749466 0.4842195 0.787611 0.957498
6.005021 149.4235 8.303743 0 0.8749466 0.4842195 0.496755 0.603238
78.04781 110.6772 -63.7391 0.4842195 0.8749466 0 0.197460 0.967776
8.0363 149.4235 6.272409 0.4842195 0.8749466 0 0.488316 0.613516
78.04781 110.6772 76.28392 0.4842195 0.8749466 0 0.779172 0.967776
-64.00648 110.6772 -65.77038 0 0.8749466 -0.4842195 0.189022 0.248977
6.005021 149.4235 4.24113 0 0.8749466 -0.4842195 0.479877 0.603238
76.01653 110.6772 -65.77038 0 0.8749466 -0.4842195 0.189022 0.957498
3.973686 149.4235 6.272409 -0.4842195 0.8749466 0 0.488316 0.592959
-66.03783 110.6772 -63.7391 -0.4842195 0.8749466 0 0.197460 0.238699
-66.03783 110.6772 76.28392 -0.4842195 0.8749466 0 0.779172 0.238699
-72.85302 139.2763 10.63845 -0.4026207 0.7091911 -0.5787441 0.506454 0.204214
-54.89892 139.2763 10.63845 0.3668332 0.8113512 -0.4551293 0.506454 0.295062
-54.89892 0 10.63845 0.4850713 -0.7276069 -0.4850713 0.506454 0.295062
-72.85302 0 10.63845 -0.5345225 -0.8017837 -0.2672612 0.506454 0.204214
-72.85302 139.2763 46.24472 -0.5098288 0.6361968 0.5790753 0.654377 0.204214
-72.85302 0 46.24472 -0.3015113 -0.904534 0.3015113 0.654377 0.204214
-54.89892 0 46.24472 0.2672612 -0.8017837 0.5345225 0.654377 0.295062
-54.89892 139.2763 46.24472 0.6401735 0.6966363 0.3238452 0.654377 0.295062
-57.24379 0 12.98332 -0.4850736 -0.7276068 0.485069 0.516196 0.283197
-57.24301 139.9777 12.98278 -0.1262997 0.9622362 0.2411429 0.516196 0.283197
-70.5086 140.087 12.98278 0.2089717 0.8780407 0.4305525 0.516196 0.216079
-70.50821 0 12.98332 0.5345236 -0.8017828 0.2672618 0.516196 0.216079
-70.5086 139.9777 43.90017 0.3810528 0.7927993 -0.4756764 0.644636 0.216079
-70.50821 0 43.8999 0.3015117 -0.9045337 -0.3015117 0.644636 0.216079
-57.24379 0 43.8999 0.1690412 -0.8451523 -0.5070925 0.644636 0.283197
-57.2436 140.087 43.90098 -0.5038614 0.8555139 -0.1192469 0.644636 0.283197
72.32709 -9.94831 -98.00512 0.2672612 -0.8017837 -0.5345225 0.055106 0.938830
72.32709 -9.94831 122.3734 0.6666667 -0.6666667 0.3333333 0.970646 0.938830
19.70412 -9.94831 109.1266 -0.5345225 -0.8017837 0.2672612 0.915613 0.672556
-99.94681 -9.94831 109.1266 -0.3333333 -0.6666667 0.6666667 0.915613 0.067118
-99.94681 -9.94831 -98.00512 -0.8164966 -0.4082483 -0.4082483 0.055106 0.067118
19.70412 -9.94831 122.3734 -0.4082483 -0.4082483 0.8164966 0.970646 0.672556
19.70412 0 109.1266 -0.2672612 0.8017837 0.5345225 0.915613 0.672556
72.32709 0 122.3734 0.5883484 -0.1961161 0.7844645 0.970646 0.938830
72.32709 0 -98.00512 0.5345225 0.8017837 -0.2672612 0.055106 0.938830
-99.94681 0 109.1266 -0.6666667 0.6666667 0.3333333 0.915613 0.067118
-99.94681 0 -98.00512 -0.4082483 0.4082483 -0.8164966 0.055106 0.067118
19.70412 0 122.3734 -0.7427813 -0.3713907 0.5570861 0.970646 0.672556
80.38924 46.61451 128.0784 -0.6853973 -0.7281694 -1.133649e-05 0.994347 0.980362
45.85384 79.1225 128.0784 0.3065155 -0.9518657 1.253264e-05 0.994347 0.804873
80.35479 46.64898 71.99347 -0.6853843 -0.7281816 -2.641415e-05 0.761347 0.980362
45.85355 79.12248 71.99347 -0.2974237 -0.9547455 -1.142072e-05 0.761347 0.804873
11.9636 46.60909 128.0784 0.6922967 -0.721613 2.822726e-05 0.994347 0.632446
11.92807 46.57281 71.99348 0.6923103 -0.7215999 1.242389e-05 0.761347 0.632446
72.32709 46.52559 122.3734 -0.8170918 -0.4076504 0.4076543 0.970646 0.938830
80.55235 46.48961 122.3734 0.3856109 -0.7251619 0.5704775 0.970646 0.980450
72.32709 54.21674 122.3734 0.2045451 0.8071731 0.5537444 0.970646 0.938830
72.32709 54.21674 71.99344 -0.728344 0.4035866 -0.5537444 0.761347 0.938830
80.55235 46.48961 71.99344 0.7787081 0.2610923 -0.5704774 0.761347 0.980450
72.32709 46.52559 71.99344 -0.4112208 -0.8153009 -0.4076543 0.761347 0.938830
19.70412 46.42605 122.3734 0.7098042 -0.6479822 0.2762193 0.970646 0.672556
19.70412 54.02761 122.3734 -0.5805624 0.7009277 0.414304 0.970646 0.672556
19.70412 54.02761 71.99344 0.4036795 0.8718776 -0.2772591 0.761347 0.672556
19.70412 46.42605 71.99344 0.02596986 -0.9743673 -0.2234591 0.761347 0.672556
11.79052 46.42605 105.5801 -0.9912986 -0.1075167 0.07594268 0.761347 0.632513
-4.679077 0 71.99348 0.2672612 -0.5345225 0.8017837 0.761348 0.549176
-4.679077 46.42545 71.99348 0.540989 -0.3296349 0.7737388 0.761348 0.549176
-26.77184 43.10934 71.99348 -0.1417049 -0.1445201 0.9793026 0.761348 0.437386
-39.30105 25.20224 71.99348 0.04786618 0.1640603 0.9852884 0.761348 0.437386
19.70412 53.05766 71.99348 -0.176838 0.1827361 0.9671276 0.761348 0.672556
-60.31705 0 71.99348 -0.2672612 -0.8017837 0.5345225 0.761348 0.267646
15.21754 -0 69.532 -0.7305997 -0.6768087 -0.09030083 0.761348 0.649853
19.70412 0 71.99348 -0.5612902 -0.7579895 0.3322731 0.761348 0.672556
-4.679077 46.42545 69.00114 0.5553074 -0.66943 -0.4934542 0.748916 0.549176
-4.679077 0 69.00114 0.5345223 -0.2672615 -0.8017837 0.748916 0.549176
-26.77184 28.18676 69.00113 -0.199156 0.2697107 -0.9421215 0.748916 0.437386
-57.24379 53.05766 69.00114 0.4850713 0.7276069 -0.4850713 0.748916 0.283197
22.04894 53.05766 69.00114 -0.05609248 0.4024673 -0.9137142 0.748916 0.684421
15.21754 46.42545 70.51978 -0.2354138 -0.9718921 -0.002481764 0.748916 0.649853
-57.24379 0 69.00114 0.2672612 -0.8017837 -0.5345225 0.748916 0.283197
-44.31281 37.14036 69.00114 0.06641288 -0.01144089 -0.9977266 0.748916 0.348628
22.04894 0 69.00114 0.2801317 -0.910973 -0.302745 0.748916 0.684421
-60.31705 0 43.8999 -0.6666667 -0.3333333 -0.6666667 0.644636 0.267646
72.32709 31.50299 -8.725276 0.9861504 0.1499115 -0.07094932 0.426010 0.938830
72.32709 43.10934 60.64495 0.8017837 -0.5345225 0.2672612 0.714201 0.938830
72.32709 13.26441 60.64495 0.8017837 0.2672612 0.5345225 0.714201 0.938830
72.32709 53.05766 122.3734 0.8320503 0.5547002 0 0.970646 0.938830
72.32709 43.10934 87.17378 0.8017837 -0.2672612 -0.5345225 0.824413 0.938830
72.32709 0 -60.65065 0.8111071 -0.4866643 -0.3244428 0.210291 0.938830
72.32709 40.45646 -27.64342 0.1761559 -0.8897464 0.4210944 0.347416 0.938830
72.32709 13.26441 87.17378 0.8728715 0.4364358 -0.2182179 0.824413 0.938830
69.33475 43.10934 60.64495 -0.8017837 -0.2672612 0.5345225 0.714201 0.923688
69.33475 40.45646 -8.725276 -0.9963753 -0.07689 -0.03639009 0.426010 0.923688
69.33475 13.26441 60.64495 -0.8017837 0.5345225 0.2672612 0.714201 0.923688
69.33475 43.10934 87.17378 -0.8017837 -0.5345225 -0.2672612 0.824413 0.923688
69.33475 53.05766 119.543 -0.9486833 0.3162278 0 0.958887 0.923688
69.33475 31.50299 -27.64342 -0.9861504 0.1499115 0.07094932 0.347416 0.923688
69.33475 0 -57.65831 -0.8111071 -0.4866643 0.3244428 0.222722 0.923688
69.33475 0 119.543 -0.4850713 -0.7276069 -0.4850713 0.958887 0.923688
69.33475 13.26441 87.17378 -0.8728715 0.2182179 -0.4364358 0.824413 0.923688
-60.31705 0 -16.47031 -0.8280821 -0.5084275 0.2361808 0.393834 0.267646
-60.31705 46.42545 -19.95378 -0.6483959 -0.5239583 0.5523137 0.393834 0.267646
-60.31705 0 -60.65065 -0.4850713 -0.7276069 -0.4850713 0.210291 0.267646
-60.31705 22.54951 -45.92389 -0.7402876 0.2870799 0.607914 0.271472 0.267646
-58.26821 0 3.426308 -0.06415228 -0.1816304 -0.981272 0.476492 0.267646
-58.26821 0 12.98332 0.0005574429 -0.05779393 0.9983284 0.516196 0.267646
-57.24379 0 -16.47031 0.7699858 -0.3090854 0.5582007 0.393834 0.283197
-57.73278 28.51849 -28.38291 -0.115091 0.6441005 -0.7562332 0.344344 0.283197
-57.24379 46.42545 -16.47031 0.09954467 -0.885952 0.4529679 0.393834 0.283197
-57.24379 0 -57.65831 0.4850713 -0.7276069 0.4850713 0.222722 0.283197
-57.24379 16.58052 -45.92389 0.984315 0.09376898 0.1494364 0.271472 0.283197
-57.24379 46.42545 -45.92389 0.9456207 -0.07546059 0.3163974 0.271472 0.283197
-59.29263 46.42545 3.426308 -0.05609015 -0.9924194 -0.1093506 0.476492 0.283197
6.501718 0 -60.65065 -0.2117479 -0.4252574 -0.879954 0.210291 0.605751
6.501718 46.42545 -60.65065 -0.5345225 -0.2672612 -0.8017837 0.210291 0.605751
26.5359 46.42545 -60.65065 0.2335819 -0.440916 -0.8666214 0.210291 0.707125
53.06473 46.42545 -60.65065 -0.5345225 -0.2672612 -0.8017837 0.210291 0.841361
-44.3452 46.42545 -60.65065 0.2672612 -0.5345225 -0.8017837 0.210291 0.348464
53.06473 16.58052 -60.65065 -0.242847 0.2586643 -0.9349428 0.210291 0.841361
-44.3452 0 -60.65065 0.8164966 -0.4082483 -0.4082483 0.210291 0.348464
26.5359 46.42545 -57.65831 0.2690716 -0.248805 0.9304281 0.222722 0.707125
6.501718 46.42545 -57.65831 -0.2672612 -0.5345225 0.8017837 0.222722 0.605751
6.501718 0 -57.65831 -0.4281382 -0.1916725 0.8831531 0.222722 0.605751
26.5359 16.58052 -59.6532 0.6783766 0.7345129 -0.01720712 0.222722 0.707125
53.06473 46.42545 -57.65831 -0.2672612 -0.5345225 0.8017837 0.222722 0.841361
-44.3452 46.42545 -57.65831 0.5345225 -0.2672612 0.8017837 0.222722 0.348464
53.06473 16.58052 -57.65831 -0.4465297 0.2597418 0.8562391 0.222722 0.841361
-44.3452 0 -57.65831 0.4082483 -0.8164966 0.4082483 0.222722 0.348464
19.70412 54.2168 71.99348 -0.7071068 0.7071068 0 0.761348 0.672556
19.70412 54.2168 122.3734 -0.5849473 0.5958937 0.5502247 0.970646 0.672556
22.04894 0 119.543 0.4850713 -0.7276069 -0.4850713 0.958887 0.684421
22.04894 54.2168 69.00109 0.8944272 0.4472136 0 0.748916 0.684421
22.04894 54.2168 119.543 -0.0772272 0.7968825 -0.599178 0.958887 0.684421
45.85369 79.12201 122.3734 -0.01424123 0.9427593 0.3331698 0.970646 0.804873
72.32709 54.2168 122.3734 0.3406581 0.362108 0.8676577 0.970646 0.938830
48.93907 33.16104 122.3734 0 0 1 0.970646 0.761314
45.85369 79.12201 119.543 0.001938339 0.5670738 -0.8236648 0.958887 0.804873
69.33475 54.2168 119.543 0.4063095 0.4041976 -0.8194735 0.958887 0.923688
46.99007 36.47714 119.543 0 0 -1 0.958887 0.761314
79.38293 50.79121 126.6967 0.68389 0.7295852 -3.611142e-07 0.988607 0.974532
79.38293 50.79121 73.37514 0.6838897 0.7295855 0 0.767088 0.974532
47.00593 81.14035 73.37514 0.68389 0.7295852 -3.611142e-07 0.767088 0.810704
47.00593 81.1404 126.6967 0.6838903 0.7295849 -7.222283e-07 0.988607 0.810704
44.71395 81.13305 126.6967 -0.6902731 0.723549 3.255905e-07 0.988607 0.799106
44.71395 81.13305 73.37514 -0.6902728 0.7235492 0 0.767088 0.799106
12.91711 50.79856 73.37514 -0.6902731 0.723549 3.255905e-07 0.767088 0.638213
12.91716 50.79856 126.6967 -0.6902734 0.7235487 6.511809e-07 0.988607 0.638213
-102.2916 49.58298 111.9571 -0.5406241 0.7774332 0.3214394 0.927372 0.055253
-102.2916 49.58298 -100.8356 -0.2444954 0.8597311 -0.4484246 0.043347 0.055253
19.70412 49.33733 109.1266 0.01750038 0.707683 -0.7063133 0.915613 0.672556
-99.94681 47.33306 109.1266 0.3010524 -0.8889481 -0.3451648 0.915613 0.067118
-99.94681 49.58298 109.1266 0.0006843414 0.9999996 0.0005669201 0.915613 0.067118
-99.94681 47.33306 -98.00512 0.5251352 -0.8098676 0.2614336 0.055106 0.067118
-99.94681 49.58298 -98.00512 0.002579094 0.9986402 -0.05206791 0.055106 0.067118
72.32709 47.33306 -98.00512 0.3930905 -0.5872796 0.7075186 0.055106 0.938830
72.32709 49.58298 -99.27998 0.4405638 0.897432 0.02278927 0.055106 0.938830
19.68745 48.80057 112.0219 0.02303346 -0.7118116 0.7019927 0.926511 0.672556
-102.2323 47.41956 -100.7234 -0.5242202 -0.8065349 -0.2733034 0.047114 0.059055
72.33884 47.41936 -100.7793 0.4666568 -0.2221092 -0.8560952 0.046791 0.938830
-102.1699 47.3732 111.8726 -0.3050335 -0.9041059 0.2992441 0.926431 0.056204
-96.73814 50.2089 -96.77329 0 0.8914998 -0.4530212 0.060223 0.083354
-59.72208 67.93889 -61.88247 0 0.8914998 -0.4530211 0.205174 0.270657
70.94538 67.93889 -61.88247 0 0.8914998 -0.4530212 0.205174 0.931838
70.94538 50.2089 -96.77329 0 0.8914998 -0.4530212 0.060223 0.931838
-96.72769 50.21188 107.8963 1.408659e-07 0.8904086 0.4551621 0.910502 0.083407
10.37653 50.21188 107.8963 0 0.8904088 0.4551617 0.910502 0.625358
29.29197 67.93591 73.22371 1.408659e-07 0.8904086 0.4551621 0.766458 0.721070
-59.72401 67.93591 73.22376 2.817319e-07 0.8904084 0.4551625 0.766459 0.270647
-98.70067 50.17983 106.15 -0.4319835 0.9018815 0 0.903247 0.073424
-61.56318 67.96796 71.3521 -0.4319835 0.9018815 0 0.758683 0.261341
-61.56318 67.96796 -60.01174 -0.4319835 0.9018815 0 0.212945 0.261341
-98.70067 50.17983 -95.01703 -0.4319835 0.9018815 0 0.067519 0.073424
-99.94681 46.43103 109.1266 -0.3014771 -0.9045167 0.3015974 0.915613 0.067118
19.70412 46.44234 109.1266 6.685502e-05 -0.7069991 0.7072145 0.915613 0.672556
-99.94681 46.43103 -98.00512 -0.5345225 -0.8017837 -0.2672612 0.055106 0.067118
72.32709 49.58298 -98.00512 0.8944272 0 -0.4472136 0.055106 0.938830
72.32709 46.43103 -98.00512 0.3333333 -0.6666667 -0.6666667 0.055106 0.938830
72.32709 46.43103 -60.65065 0.8944272 -0.4472136 0 0.210291 0.938830
-60.31705 46.43103 -60.65065 0 -1 0 0.210291 0.267646
-60.31705 46.43103 71.99348 0 -1 0 0.761348 0.267646
19.70412 46.43103 71.99348 4.728084e-05 -1 0.0001523491 0.761348 0.672556
72.32709 68.56486 -60.65065 1 0 0 0.210291 0.938830
12.71283 -7.142377 118.7734 1 0 0 0.970719 0.501571
5.222178 -3.316103 109.5167 1 0 0 0.915613 0.501571
-4.625542 -9.727236 111.0215 1 0 0 0.915613 0.672556
-101.7556 -4.263561 10.94789 -0.5504478 0.8234522 0.1375993 0.507740 0.033559
-113.2112 -7.958648 -18.43138 -0.9746548 0.129103 0.1827037 0.350814 0.000000
-101.2732 -3.316103 -26.82545 0.9890108 -0.1468104 -0.01744156 0.350814 0.067118
-103.2629 -9.285089 -26.82545 -0.5820066 0.007682097 -0.8131478 0.350814 0.067118
-102.5997 -9.94831 10.94789 0.5387123 -0.8190666 0.1972789 0.507740 0.067118
12.22813 -6.632207 -104.6373 0.581329 0.7604061 -0.2895501 0.027553 0.634727
-48.63408 -5.96899 -104.6373 -0.4775453 0.8135761 -0.3317295 0.027553 0.326762
12.22819 -9.94831 -111.2695 0.5947979 -0.05984194 -0.8016448 0.000000 0.634727
-48.63408 -9.94831 -111.2695 -0.5144666 -0.5198888 -0.6819382 0.000000 0.326762
-28.34665 -6.632207 -111.2695 -0.01616123 0.8044079 -0.5938576 0.000000 0.634727
-48.63408 -3.316103 -98.00512 -0.6605273 0.6217786 0.4208266 0.055106 0.326762
12.228 -3.316103 -99.3315 0.4141203 0.7985579 0.4368176 0.055106 0.634727
12.22813 -9.94831 -98.00506 0.697773 -0.6293401 0.3421168 0.055106 0.634727
-48.63408 -9.94831 -98.00512 -0.6792685 -0.2760332 0.68 0.055106 0.326762
3 0 35 1 
3 0 1 2 
3 5 6 10 
3 5 10 4 
3 5 4 9 
3 7 8 9 
3 7 9 3 
3 7 3 10 
3 10 6 7 
3 9 8 5 
3 11 12 13 
3 11 13 14 
3 16 19 15 
3 16 15 22 
3 16 17 18 
3 18 19 16 
3 15 20 21 
3 21 22 15 
3 17 16 22 
3 17 22 21 
3 20 15 19 
3 20 19 18 
3 11 14 2 
3 11 2 1 
3 14 13 0 
3 14 0 2 
3 13 12 35 
3 13 35 0 
3 16 22 3 
3 16 3 4 
3 15 19 4 
3 15 4 3 
3 18 17 6 
3 18 6 5 
3 16 4 10 
3 19 9 4 
3 21 20 8 
3 21 8 7 
3 15 3 9 
3 22 10 3 
3 17 21 7 
3 17 7 6 
3 22 16 10 
3 19 15 9 
3 25 23 24 
3 26 1 27 
3 26 27 24 
3 26 24 23 
3 26 23 28 
3 29 28 25 
3 29 25 30 
3 29 30 35 
3 30 27 1 
3 30 1 35 
3 28 29 26 
3 36 11 32 
3 36 32 31 
3 32 33 31 
3 31 33 34 
3 34 35 12 
3 34 12 36 
3 34 36 31 
3 11 36 12 
3 34 33 32 
3 31 25 24 
3 31 33 23 
3 31 23 25 
3 32 11 1 
3 32 1 26 
3 36 31 24 
3 36 24 27 
3 33 28 23 
3 35 34 29 
3 33 31 25 
3 33 25 28 
3 31 36 30 
3 31 30 25 
3 36 27 30 
3 37 38 39 
3 37 39 40 
3 8 41 40 
3 8 40 39 
3 8 39 38 
3 8 38 42 
3 43 5 44 
3 43 44 37 
3 43 37 40 
3 40 41 43 
3 42 44 5 
3 42 5 8 
3 45 46 47 
3 45 47 48 
3 48 49 20 
3 48 20 45 
3 20 50 46 
3 20 46 45 
3 51 18 52 
3 51 52 47 
3 52 48 47 
3 49 48 52 
3 18 51 50 
3 18 50 20 
3 45 48 40 
3 45 40 39 
3 47 46 38 
3 47 38 37 
3 20 49 41 
3 20 41 8 
3 48 45 39 
3 48 39 40 
3 46 50 42 
3 46 42 38 
3 52 18 5 
3 52 5 43 
3 51 47 37 
3 51 37 44 
3 50 51 44 
3 50 44 42 
3 53 54 55 
3 41 26 56 
3 41 56 54 
3 41 54 53 
3 41 53 57 
3 29 43 57 
3 29 57 53 
3 29 53 55 
3 29 55 58 
3 58 56 26 
3 58 26 29 
3 57 43 41 
3 59 62 63 
3 59 63 60 
3 61 32 49 
3 61 49 59 
3 49 62 59 
3 63 52 34 
3 34 64 60 
3 34 60 63 
3 32 61 64 
3 32 64 34 
3 52 63 62 
3 52 62 49 
3 59 60 55 
3 59 55 54 
3 63 62 53 
3 49 32 26 
3 49 26 41 
3 61 59 54 
3 61 54 56 
3 62 57 53 
3 34 52 43 
3 34 43 29 
3 63 53 57 
3 60 64 58 
3 60 58 55 
3 64 61 56 
3 64 56 58 
3 62 63 57 
3 67 66 65 
3 66 68 65 
3 69 67 70 
3 67 68 70 
3 65 66 67 
3 68 66 65 
3 70 67 69 
3 68 67 70 
3 71 72 73 
3 71 73 74 
3 75 71 74 
3 75 74 76 
3 77 75 76 
3 77 76 78 
3 72 77 78 
3 72 78 73 
3 78 76 74 
3 78 74 73 
3 91 89 79 
3 91 79 80 
3 89 90 81 
3 89 81 79 
3 90 82 83 
3 90 83 81 
3 82 91 80 
3 82 80 83 
3 84 85 86 
3 84 86 72 
3 75 87 85 
3 75 85 84 
3 77 88 87 
3 77 87 75 
3 72 86 88 
3 72 88 77 
3 84 72 80 
3 84 80 79 
3 86 85 89 
3 86 89 91 
3 75 84 79 
3 75 79 81 
3 85 87 90 
3 85 90 89 
3 77 75 81 
3 77 81 83 
3 87 88 82 
3 87 82 90 
3 72 77 83 
3 72 83 80 
3 88 86 91 
3 88 91 82 
3 92 93 94 
3 95 96 97 
3 98 99 100 
3 101 102 103 
3 104 105 106 
3 104 106 107 
3 108 104 107 
3 108 107 109 
3 108 109 110 
3 108 110 111 
3 111 110 106 
3 111 106 105 
3 112 113 114 
3 112 114 115 
3 115 114 116 
3 115 116 117 
3 118 117 116 
3 118 116 119 
3 112 118 119 
3 112 119 113 
3 112 115 107 
3 112 107 106 
3 114 113 105 
3 114 105 104 
3 115 117 109 
3 115 109 107 
3 116 114 104 
3 116 104 108 
3 119 116 108 
3 119 108 111 
3 117 118 110 
3 117 110 109 
3 113 119 111 
3 113 111 105 
3 118 112 106 
3 118 106 110 
3 114 104 105 
3 114 105 113 
3 116 108 104 
3 116 104 114 
3 119 111 108 
3 119 108 116 
3 113 105 111 
3 113 111 119 
3 105 104 114 
3 105 114 113 
3 104 108 116 
3 104 116 114 
3 108 111 119 
3 108 119 116 
3 111 105 113 
3 111 113 119 
3 120 121 122 
3 120 122 123 
3 120 123 124 
3 122 121 125 
3 126 127 128 
3 126 128 129 
3 128 130 129 
3 131 127 126 
3 129 130 124 
3 129 124 123 
3 130 128 120 
3 130 120 124 
3 128 127 121 
3 128 121 120 
3 126 129 123 
3 126 123 122 
3 127 131 125 
3 127 125 121 
3 131 126 122 
3 131 122 125 
3 135 134 132 
3 135 132 133 
3 137 135 133 
3 137 133 136 
3 138 139 140 
3 141 142 143 
3 143 142 139 
3 143 139 138 
3 142 141 140 
3 142 140 139 
3 141 143 138 
3 141 138 140 
3 144 145 148 
3 146 147 148 
3 147 144 148 
3 148 145 146 
3 146 145 144 
3 146 144 147 
3 149 150 151 
3 149 151 152 
3 153 35 152 
3 153 152 151 
3 153 151 150 
3 153 150 162 
3 152 154 149 
3 152 35 154 
3 153 162 155 
3 153 155 156 
3 159 157 158 
3 164 160 161 
3 164 161 159 
3 161 162 157 
3 161 157 159 
3 158 163 164 
3 158 164 159 
3 160 164 163 
3 155 162 161 
3 155 161 165 
3 159 152 151 
3 158 157 150 
3 158 150 149 
3 161 160 35 
3 161 35 153 
3 164 159 151 
3 164 151 152 
3 157 162 150 
3 159 164 152 
3 163 158 149 
3 163 149 154 
3 155 165 156 
3 166 154 35 
3 166 35 0 
3 160 163 118 
3 160 118 13 
3 160 13 0 
3 160 0 35 
3 13 118 166 
3 13 166 0 
3 118 163 154 
3 118 154 166 
3 167 168 169 
3 43 170 171 
3 43 171 168 
3 43 168 167 
3 43 167 173 
3 172 173 167 
3 172 167 169 
3 172 169 174 
3 172 174 127 
3 174 171 170 
3 174 170 127 
3 173 172 43 
3 175 176 177 
3 178 179 52 
3 178 52 175 
3 52 180 176 
3 52 176 175 
3 176 180 181 
3 176 181 177 
3 181 182 183 
3 181 183 177 
3 179 178 183 
3 179 183 182 
3 181 180 52 
3 175 177 169 
3 175 169 168 
3 52 179 170 
3 52 170 43 
3 178 175 168 
3 178 168 171 
3 176 180 173 
3 176 173 167 
3 180 176 167 
3 180 167 173 
3 177 183 174 
3 177 174 169 
3 182 181 172 
3 182 172 127 
3 183 178 171 
3 183 171 174 
3 185 191 184 
3 187 186 184 
3 187 184 191 
3 6 5 187 
3 6 187 185 
3 6 185 196 
3 6 196 188 
3 6 188 189 
3 187 5 186 
3 190 191 192 
3 190 193 194 
3 190 194 191 
3 195 18 17 
3 195 17 191 
3 17 196 192 
3 17 192 191 
3 188 196 17 
3 188 17 189 
3 18 195 194 
3 18 194 193 
3 191 194 187 
3 193 190 184 
3 193 184 186 
3 17 18 5 
3 17 5 6 
3 195 191 185 
3 195 185 187 
3 189 17 6 
3 194 195 187 
3 185 184 190 
3 185 190 192 
3 196 185 192 
3 197 198 199 
3 197 199 207 
3 5 43 200 
3 5 200 199 
3 5 199 198 
3 5 198 201 
3 202 172 197 
3 202 197 207 
3 202 200 43 
3 202 43 172 
3 201 203 186 
3 201 186 5 
3 204 205 206 
3 204 206 207 
3 208 52 18 
3 208 18 204 
3 18 209 205 
3 18 205 204 
3 206 181 210 
3 206 210 207 
3 52 208 210 
3 52 210 181 
3 193 211 209 
3 193 209 18 
3 204 207 199 
3 206 205 198 
3 206 198 197 
3 18 52 43 
3 18 43 5 
3 208 204 199 
3 208 199 200 
3 205 209 201 
3 205 201 198 
3 207 210 202 
3 181 206 197 
3 181 197 172 
3 210 208 200 
3 210 200 202 
3 209 211 203 
3 209 203 201 
3 211 193 186 
3 211 186 203 
3 212 156 131 
3 212 131 213 
3 214 165 215 
3 214 215 216 
3 216 215 212 
3 216 212 213 
3 165 214 131 
3 165 131 156 
3 217 213 219 
3 217 219 218 
3 219 131 127 
3 219 213 131 
3 219 127 218 
3 222 216 220 
3 222 220 221 
3 214 222 182 
3 216 222 214 
3 182 222 221 
3 217 220 216 
3 217 216 213 
3 214 182 127 
3 214 127 131 
3 217 218 221 
3 217 221 220 
3 223 224 225 
3 223 225 226 
3 227 228 229 
3 227 229 230 
3 243 240 231 
3 241 243 231 
3 241 231 232 
3 242 241 232 
3 242 232 239 
3 233 234 235 
3 235 234 236 
3 235 236 237 
3 237 236 238 
3 237 238 239 
3 233 235 231 
3 233 231 240 
3 234 233 240 
3 234 240 243 
3 235 237 232 
3 235 232 231 
3 236 234 243 
3 236 243 241 
3 237 239 232 
3 242 239 238 
3 238 236 241 
3 238 241 242 
3 244 245 246 
3 244 246 247 
3 248 249 250 
3 248 250 251 
3 252 253 254 
3 252 254 255 
3 257 235 256 
3 235 237 258 
3 235 258 256 
3 237 259 260 
3 237 260 258 
3 260 261 262 
3 260 262 258 
3 258 262 263 
3 258 263 256 
3 256 263 264 
3 256 264 257 
3 261 260 259 
3 261 259 265 
3 268 266 267 
3 266 268 267 
3 272 269 271 
3 269 272 270 
3 273 270 272 
3 269 270 273 
3 273 272 271 
3 273 271 269 
3 274 275 280 
3 276 277 278 
3 279 280 275 
3 275 274 278 
3 274 280 281 
3 274 281 276 
3 274 276 278 
3 277 276 281 
3 277 281 282 
3 275 278 277 
3 275 277 282 
3 275 282 279 
3 282 281 280 
3 282 280 279 
