ply
format ascii 1.0
comment Created by Blender 2.79 (sub 0) - www.blender.org, source file: ''
element vertex 16
property float x
property float y
property float z
property float nx
property float ny
property float nz
element face 8
property list uchar uint vertex_indices
end_header
1.000000 1.362000 -4.500000 0.000000 0.000000 -1.000000
1.000000 -1.362000 -4.500000 0.000000 0.000000 -1.000000
-1.000000 -1.362000 -4.500000 0.000000 0.000000 -1.000000
-1.000000 1.362000 -4.500000 -0.000000 -0.000000 -1.000000
-1.000000 -1.362000 4.500000 0.000000 0.000000 1.000000
1.000000 -1.362000 4.500000 0.000000 0.000000 1.000000
-1.000000 1.362000 4.500000 0.000000 0.000000 1.000000
4.500000 -1.362240 1.000000 1.000000 0.000000 0.000000
4.500000 1.362240 -1.000000 1.000000 0.000000 0.000000
4.500000 1.362240 1.000000 1.000000 0.000000 0.000000
4.500000 -1.362240 -1.000000 1.000000 0.000000 0.000000
-4.500000 1.362240 -1.000000 -1.000000 0.000000 0.000000
-4.500000 -1.362240 -1.000000 -1.000000 0.000000 0.000000
-4.500000 -1.362240 1.000000 -1.000000 0.000000 0.000000
-4.500000 1.362240 1.000000 -1.000000 0.000000 0.000000
1.000000 1.362000 4.500000 -0.000000 0.000000 1.000000
3 0 1 2
3 2 3 0
3 4 5 6
3 7 8 9
3 10 8 7
3 11 12 13
3 14 11 13
3 5 15 6
