ply
format ascii 1.0
comment VCGLIB generated
element vertex 162
property float x
property float y
property float z
property float nx
property float ny
property float nz
element face 320
property list uchar int vertex_indices
end_header
0 -4 0 0 -16 0 
-0.812724 -3.8718 -0.590472 -3.375157 -15.44651 -2.452262 
0.310428 -3.8718 -0.955412 1.289131 -15.44659 -3.967489 
-2.894428 -1.78888 -2.1029 -11.57771 -7.155611 -8.411537 
-2.438188 -2.630076 -1.771424 -9.667533 -10.63977 -7.023831 
-3.250916 -2.009204 -1.180952 -13.04311 -8.06094 -4.571503 
1.004588 -3.871796 0 4.172058 -15.44649 0 
0.310428 -3.8718 0.955412 1.289131 -15.44659 3.967489 
-0.812724 -3.8718 0.590472 -3.375157 -15.44651 2.452262 
-3.442792 -1.004604 -1.771432 -13.83995 -3.888832 -7.023735 
1.105552 -1.78888 -3.402596 4.422062 -7.155561 -13.61041 
0.118556 -2.009208 -3.456736 0.317403 -8.061082 -13.81732 
0.62086 -1.004608 -3.821688 2.403466 -3.888902 -15.33296 
3.577704 -1.788864 0 14.31093 -7.155226 0 
3.324204 -2.009196 -0.955412 13.23936 -8.06092 -3.967467 
3.826504 -1.004596 -0.590472 15.32526 -3.888808 -2.45224 
1.105552 -1.78888 3.402596 4.422062 -7.155561 13.61041 
1.935884 -2.009208 2.86626 7.864787 -8.061097 11.36503 
1.744028 -1.004608 3.456752 7.067714 -3.888846 13.81754 
-2.894428 -1.78888 2.1029 -11.57771 -7.155611 8.411537 
-2.127764 -2.009208 2.726848 -8.378442 -8.061038 10.99188 
-2.748636 -1.004608 2.72686 -10.95709 -3.888859 10.99177 
-2.748636 -1.004608 -2.72686 -10.95709 -3.888859 -10.99177 
1.744028 -1.004608 -3.456752 7.067714 -3.888846 -13.81754 
3.826504 -1.004596 0.590472 15.32526 -3.888808 2.45224 
0.62086 -1.004608 3.821688 2.403466 -3.888902 15.33296 
-3.442792 -1.004604 1.771432 -13.83995 -3.888832 7.023735 
-1.105552 1.78888 -3.402596 -4.422062 7.155561 -13.61041 
-1.935884 2.009208 -2.86626 -7.864787 8.061097 -11.36503 
-0.931288 2.630076 -2.866252 -3.692586 10.63975 -11.36488 
2.894428 1.78888 -2.1029 11.57771 7.155611 -8.411537 
2.127764 2.009208 -2.726848 8.378442 8.061038 -10.99188 
2.438188 2.630076 -1.771424 9.667533 10.63977 -7.023831 
2.894428 1.78888 2.1029 11.57771 7.155611 8.411537 
3.250916 2.009204 1.180952 13.04311 8.06094 4.571503 
2.438188 2.630076 1.771424 9.667533 10.63977 7.023831 
-1.105552 1.78888 3.402596 -4.422062 7.155561 13.61041 
-0.118556 2.009208 3.456736 -0.317403 8.061082 13.81732 
-0.931288 2.630076 2.866252 -3.692586 10.63975 11.36488 
-3.577704 1.788864 0 -14.31093 7.155226 0 
-3.324204 2.009196 0.955412 -13.23936 8.06092 3.967467 
-3.013768 2.63006 0 -11.94979 10.63967 0 
-1.004588 3.871796 0 -4.172058 15.44649 0 
-0.310428 3.8718 0.955412 -1.289131 15.44659 3.967489 
0 4 0 0 16 0 
-2.10292 3.402608 0 -8.411541 13.61051 0 
-1.4472 3.577716 1.051452 -5.891427 14.24685 4.280016 
-2.552776 2.89444 1.051456 -10.10802 11.64084 4.280045 
-0.649824 3.402616 1.99998 -2.599243 13.6105 7.999893 
-1.788836 2.894448 2.102912 -7.194281 11.64085 8.290539 
-2.752756 2.102944 1.999988 -11.011 8.411707 8.000061 
-1.935884 2.009208 2.86626 -7.864787 8.061097 11.36503 
0.812724 3.8718 0.590472 3.375157 15.44651 2.452262 
0.552788 3.57772 1.701276 2.250112 14.24683 6.925654 
0.21116 2.894448 2.75274 0.9473104 11.64067 10.93606 
1.701292 3.402616 1.236044 6.805039 13.61056 4.944105 
1.447216 2.894448 2.351112 5.661541 11.64097 9.40398 
1.051476 2.102952 3.236048 4.205858 8.411716 12.94426 
2.127764 2.009208 2.726848 8.378442 8.061038 10.99188 
0.812724 3.8718 -0.590472 3.375157 15.44651 -2.452262 
1.78884 3.577716 0 7.282103 14.24679 0 
2.683268 2.894444 0.649828 10.69348 11.6408 2.47816 
1.701292 3.402616 -1.236044 6.805039 13.61056 -4.944105 
2.683268 2.894444 -0.649828 10.69348 11.6408 -2.47816 
3.402592 2.102944 0 13.61051 8.411541 0 
3.250916 2.009204 -1.180952 13.04311 8.06094 -4.571503 
-0.310428 3.8718 -0.955412 -1.289131 15.44659 -3.967489 
0.552788 3.57772 -1.701276 2.250112 14.24683 -6.925654 
1.447216 2.894448 -2.351112 5.661541 11.64097 -9.40398 
-0.649824 3.402616 -1.99998 -2.599243 13.6105 -7.999893 
0.21116 2.894448 -2.75274 0.9473104 11.64067 -10.93606 
1.051476 2.102952 -3.236048 4.205858 8.411716 -12.94426 
-0.118556 2.009208 -3.456736 -0.317403 8.061082 -13.81732 
-1.4472 3.577716 -1.051452 -5.891427 14.24685 -4.280016 
-1.788836 2.894448 -2.102912 -7.194281 11.64085 -8.290539 
-2.552776 2.89444 -1.051456 -10.10802 11.64084 -4.280045 
-2.752756 2.102944 -1.999988 -11.011 8.411707 -8.000061 
-3.324204 2.009196 -0.955412 -13.23936 8.06092 -3.967467 
-3.826504 1.004596 0.590472 -15.32526 3.888808 2.45224 
-3.804232 0 1.236052 -15.21697 0 4.944066 
-3.447216 1.105584 1.701288 -13.74914 4.358586 6.925595 
-3.236076 0 2.351128 -12.94381 0.1416005 9.404133 
-2.683284 1.105588 2.752756 -10.83542 4.35858 10.93602 
-2.351144 0 3.236068 -9.404274 0 12.94448 
-1.744028 1.004608 3.456752 -7.067714 3.888846 13.81754 
-0.62086 1.004608 3.821688 -2.403466 3.888902 15.33296 
0 0 4 0 0 16 
0.552796 1.105588 3.80422 2.338045 4.358672 15.21629 
1.236064 0 3.804228 4.944013 0.1416004 15.21633 
1.78886 1.105588 3.402596 7.052253 4.358704 13.68457 
2.351144 0 3.236068 9.404274 0 12.94448 
2.748636 1.004608 2.72686 10.95709 3.888859 10.99177 
3.442792 1.004604 1.771432 13.83995 3.888832 7.023735 
3.804232 0 1.236052 15.21697 0 4.944066 
3.788852 1.105584 0.649832 15.19412 4.358613 2.478144 
4 4e-06 0 15.99937 0.1416031 0 
3.788852 1.105588 -0.649832 15.19412 4.358613 -2.478144 
3.804232 0 -1.236052 15.21697 0 -4.944066 
3.442792 1.004604 -1.771432 13.83995 3.888832 -7.023735 
2.748636 1.004608 -2.72686 10.95709 3.888859 -10.99177 
2.351144 0 -3.236068 9.404274 0 -12.94448 
1.788864 1.105588 -3.402592 7.052253 4.358704 -13.68457 
1.236068 -4e-06 -3.804224 4.944013 0.1416004 -15.21633 
0.552796 1.105588 -3.80422 2.338045 4.358672 -15.21629 
0 0 -4 0 0 -16 
-0.62086 1.004608 -3.821688 -2.403466 3.888902 -15.33296 
-1.744028 1.004608 -3.456752 -7.067714 3.888846 -13.81754 
-2.351144 0 -3.236068 -9.404274 0 -12.94448 
-2.68328 1.105584 -2.75276 -10.83542 4.35858 -10.93602 
-3.236076 -8e-06 -2.351132 -12.94381 0.1416005 -9.404133 
-3.447216 1.105576 -1.701292 -13.74914 4.358586 -6.925595 
-3.804232 0 -1.236052 -15.21697 0 -4.944066 
-3.826504 1.004596 -0.590472 -15.32526 3.888808 -2.45224 
-1.236068 0 3.804224 -4.944013 -0.1416004 15.21633 
-1.788864 -1.105592 3.402592 -7.052253 -4.358704 13.68457 
-0.552796 -1.105592 3.80422 -2.338045 -4.358672 15.21629 
-1.051476 -2.102952 3.236048 -4.205858 -8.411716 12.94426 
0.118556 -2.009208 3.456736 0.317403 -8.061082 13.81732 
3.236072 0 2.351132 12.94381 -0.1416005 9.404133 
2.683276 -1.105588 2.752764 10.83542 -4.35858 10.93602 
3.447212 -1.105584 1.701296 13.74914 -4.358586 6.925595 
2.752756 -2.102944 1.999988 11.011 -8.411707 8.000061 
3.324204 -2.009196 0.955412 13.23936 -8.06092 3.967467 
3.236072 0 -2.351132 12.94381 -0.1416005 -9.404133 
3.447212 -1.105584 -1.701296 13.74914 -4.358586 -6.925595 
2.683276 -1.105588 -2.752764 10.83542 -4.35858 -10.93602 
2.752756 -2.102944 -1.999988 11.011 -8.411707 -8.000061 
1.935884 -2.009208 -2.86626 7.864787 -8.061097 -11.36503 
-1.236068 0 -3.804224 -4.944013 -0.1416004 -15.21633 
-0.552796 -1.105592 -3.80422 -2.338045 -4.358672 -15.21629 
-1.788864 -1.105592 -3.402592 -7.052253 -4.358704 -13.68457 
-1.051476 -2.102952 -3.236048 -4.205858 -8.411716 -12.94426 
-2.127764 -2.009208 -2.726848 -8.378442 -8.061038 -10.99188 
-4 0 0 -15.99937 -0.1416031 0 
-3.788852 -1.105584 -0.649832 -15.19412 -4.358613 -2.478144 
-3.788852 -1.105584 0.649832 -15.19412 -4.358613 2.478144 
-3.402592 -2.102944 0 -13.61051 -8.411541 0 
-3.250916 -2.009204 1.180952 -13.04311 -8.06094 4.571503 
-2.438188 -2.630076 1.771424 -9.667533 -10.63977 7.023831 
-1.701292 -3.402616 1.236044 -6.805039 -13.61056 4.944105 
-1.447212 -2.894448 2.351116 -5.661438 -11.64076 9.404304 
-0.552788 -3.577716 1.701284 -2.250112 -14.24683 6.925654 
-0.211156 -2.894444 2.752744 -0.9473104 -11.64067 10.93606 
0.649824 -3.402616 1.99998 2.599243 -13.6105 7.999893 
0.931288 -2.630076 2.866252 3.692586 -10.63975 11.36488 
1.788844 -2.894448 2.102908 7.194281 -11.64085 8.290539 
1.447204 -3.577716 1.051452 5.891427 -14.24685 4.280016 
2.55278 -2.894436 1.051452 10.10802 -11.64084 4.280045 
2.10292 -3.402608 0 8.411541 -13.61051 0 
3.013768 -2.63006 0 11.94979 -10.63967 0 
2.55278 -2.894436 -1.051456 10.10802 -11.64084 -4.280045 
1.447204 -3.577712 -1.051456 5.891427 -14.24685 -4.280016 
1.788844 -2.89444 -2.102916 7.194281 -11.64085 -8.290539 
0.649824 -3.402616 -1.99998 2.599243 -13.6105 -7.999893 
0.931288 -2.630076 -2.866252 3.692586 -10.63975 -11.36488 
-2.683268 -2.894444 0.649828 -10.69348 -11.6408 2.47816 
-2.683272 -2.89444 -0.649832 -10.69348 -11.6408 -2.47816 
-1.788844 -3.577712 -4e-06 -7.282103 -14.24679 0 
-1.701292 -3.402616 -1.236044 -6.805039 -13.61056 -4.944105 
-0.21116 -2.894448 -2.75274 -0.9473104 -11.64067 -10.93606 
-0.552796 -3.577716 -1.701284 -2.250112 -14.24683 -6.925654 
-1.44722 -2.894444 -2.351116 -5.661438 -11.64076 -9.404304 
3 0 1 2 
3 3 4 5 
3 0 2 6 
3 0 6 7 
3 0 7 8 
3 3 5 9 
3 10 11 12 
3 13 14 15 
3 16 17 18 
3 19 20 21 
3 3 9 22 
3 10 12 23 
3 13 15 24 
3 16 18 25 
3 19 21 26 
3 27 28 29 
3 30 31 32 
3 33 34 35 
3 36 37 38 
3 39 40 41 
3 42 43 44 
3 45 46 42 
3 41 47 45 
3 42 46 43 
3 46 48 43 
3 45 47 46 
3 47 49 46 
3 46 49 48 
3 49 38 48 
3 41 40 47 
3 40 50 47 
3 47 50 49 
3 50 51 49 
3 49 51 38 
3 51 36 38 
3 43 52 44 
3 48 53 43 
3 38 54 48 
3 43 53 52 
3 53 55 52 
3 48 54 53 
3 54 56 53 
3 53 56 55 
3 56 35 55 
3 38 37 54 
3 37 57 54 
3 54 57 56 
3 57 58 56 
3 56 58 35 
3 58 33 35 
3 52 59 44 
3 55 60 52 
3 35 61 55 
3 52 60 59 
3 60 62 59 
3 55 61 60 
3 61 63 60 
3 60 63 62 
3 63 32 62 
3 35 34 61 
3 34 64 61 
3 61 64 63 
3 64 65 63 
3 63 65 32 
3 65 30 32 
3 59 66 44 
3 62 67 59 
3 32 68 62 
3 59 67 66 
3 67 69 66 
3 62 68 67 
3 68 70 67 
3 67 70 69 
3 70 29 69 
3 32 31 68 
3 31 71 68 
3 68 71 70 
3 71 72 70 
3 70 72 29 
3 72 27 29 
3 66 42 44 
3 69 73 66 
3 29 74 69 
3 66 73 42 
3 73 45 42 
3 69 74 73 
3 74 75 73 
3 73 75 45 
3 75 41 45 
3 29 28 74 
3 28 76 74 
3 74 76 75 
3 76 77 75 
3 75 77 41 
3 77 39 41 
3 78 40 39 
3 79 80 78 
3 26 81 79 
3 78 80 40 
3 80 50 40 
3 79 81 80 
3 81 82 80 
3 80 82 50 
3 82 51 50 
3 26 21 81 
3 21 83 81 
3 81 83 82 
3 83 84 82 
3 82 84 51 
3 84 36 51 
3 85 37 36 
3 86 87 85 
3 25 88 86 
3 85 87 37 
3 87 57 37 
3 86 88 87 
3 88 89 87 
3 87 89 57 
3 89 58 57 
3 25 18 88 
3 18 90 88 
3 88 90 89 
3 90 91 89 
3 89 91 58 
3 91 33 58 
3 92 34 33 
3 93 94 92 
3 24 95 93 
3 92 94 34 
3 94 64 34 
3 93 95 94 
3 95 96 94 
3 94 96 64 
3 96 65 64 
3 24 15 95 
3 15 97 95 
3 95 97 96 
3 97 98 96 
3 96 98 65 
3 98 30 65 
3 99 31 30 
3 100 101 99 
3 23 102 100 
3 99 101 31 
3 101 71 31 
3 100 102 101 
3 102 103 101 
3 101 103 71 
3 103 72 71 
3 23 12 102 
3 12 104 102 
3 102 104 103 
3 104 105 103 
3 103 105 72 
3 105 27 72 
3 106 28 27 
3 107 108 106 
3 22 109 107 
3 106 108 28 
3 108 76 28 
3 107 109 108 
3 109 110 108 
3 108 110 76 
3 110 77 76 
3 22 9 109 
3 9 111 109 
3 109 111 110 
3 111 112 110 
3 110 112 77 
3 112 39 77 
3 84 85 36 
3 83 113 84 
3 21 114 83 
3 84 113 85 
3 113 86 85 
3 83 114 113 
3 114 115 113 
3 113 115 86 
3 115 25 86 
3 21 20 114 
3 20 116 114 
3 114 116 115 
3 116 117 115 
3 115 117 25 
3 117 16 25 
3 91 92 33 
3 90 118 91 
3 18 119 90 
3 91 118 92 
3 118 93 92 
3 90 119 118 
3 119 120 118 
3 118 120 93 
3 120 24 93 
3 18 17 119 
3 17 121 119 
3 119 121 120 
3 121 122 120 
3 120 122 24 
3 122 13 24 
3 98 99 30 
3 97 123 98 
3 15 124 97 
3 98 123 99 
3 123 100 99 
3 97 124 123 
3 124 125 123 
3 123 125 100 
3 125 23 100 
3 15 14 124 
3 14 126 124 
3 124 126 125 
3 126 127 125 
3 125 127 23 
3 127 10 23 
3 105 106 27 
3 104 128 105 
3 12 129 104 
3 105 128 106 
3 128 107 106 
3 104 129 128 
3 129 130 128 
3 128 130 107 
3 130 22 107 
3 12 11 129 
3 11 131 129 
3 129 131 130 
3 131 132 130 
3 130 132 22 
3 132 3 22 
3 112 78 39 
3 111 133 112 
3 9 134 111 
3 112 133 78 
3 133 79 78 
3 111 134 133 
3 134 135 133 
3 133 135 79 
3 135 26 79 
3 9 5 134 
3 5 136 134 
3 134 136 135 
3 136 137 135 
3 135 137 26 
3 137 19 26 
3 138 20 19 
3 139 140 138 
3 8 141 139 
3 138 140 20 
3 140 116 20 
3 139 141 140 
3 141 142 140 
3 140 142 116 
3 142 117 116 
3 8 7 141 
3 7 143 141 
3 141 143 142 
3 143 144 142 
3 142 144 117 
3 144 16 117 
3 144 17 16 
3 143 145 144 
3 7 146 143 
3 144 145 17 
3 145 121 17 
3 143 146 145 
3 146 147 145 
3 145 147 121 
3 147 122 121 
3 7 6 146 
3 6 148 146 
3 146 148 147 
3 148 149 147 
3 147 149 122 
3 149 13 122 
3 149 14 13 
3 148 150 149 
3 6 151 148 
3 149 150 14 
3 150 126 14 
3 148 151 150 
3 151 152 150 
3 150 152 126 
3 152 127 126 
3 6 2 151 
3 2 153 151 
3 151 153 152 
3 153 154 152 
3 152 154 127 
3 154 10 127 
3 137 138 19 
3 136 155 137 
3 5 156 136 
3 137 155 138 
3 155 139 138 
3 136 156 155 
3 156 157 155 
3 155 157 139 
3 157 8 139 
3 5 4 156 
3 4 158 156 
3 156 158 157 
3 158 1 157 
3 157 1 8 
3 1 0 8 
3 154 11 10 
3 153 159 154 
3 2 160 153 
3 154 159 11 
3 159 131 11 
3 153 160 159 
3 160 161 159 
3 159 161 131 
3 161 132 131 
3 2 1 160 
3 1 158 160 
3 160 158 161 
3 158 4 161 
3 161 4 132 
3 4 3 132 
